<?xml version="1.0" encoding="UTF-8"?>
<svg width="1000" height="1002" version="1.1" xmlns="http://www.w3.org/2000/svg" xmlns:xlink="http://www.w3.org/1999/xlink">
 <g stroke="#fff" fill="#111" stroke-width="3">
  <circle cx="500" cy="500" r="500"/>
  <circle cx="500" cy="500" r="35.898"/>
  <g id="a" >
   <circle cx="500" cy="767.95" r="232.05"/>
   <circle cx="836.01" cy="694" r="112"/>
   <circle cx="543.71" cy="525.23" r="14.569"/>
   <circle cx="715.67" cy="624.52" r="26.959"/>
   <circle cx="540.55" cy="505.85" r="5.0683"/>
   <circle cx="749.08" cy="607.86" r="10.378"/>
   <circle cx="525.34" cy="532.19" r="5.0683"/>
   <circle cx="563.16" cy="536.47" r="7.895"/>
   <circle cx="717.95" cy="661.78" r="10.378"/>
   <circle cx="681.82" cy="604.98" r="12.122"/>
   <circle cx="536" cy="510.89" r="1.7144"/>
   <circle cx="746.04" cy="621.46" r="3.5658"/>
   <circle cx="527.43" cy="525.74" r="1.7144"/>
   <circle cx="553.18" cy="539.47" r="2.5322"/>
   <circle cx="728.21" cy="652.34" r="3.5658"/>
   <circle cx="684.81" cy="620.93" r="4.1069"/>
   <circle cx="546.82" cy="509.01" r="1.9506"/>
   <circle cx="538.43" cy="498.52" r="2.5621"/>
   <circle cx="736.32" cy="601.79" r="3.7511"/>
   <circle cx="763.61" cy="601.46" r="5.4918"/>
   <circle cx="531.21" cy="536.04" r="1.9506"/>
   <circle cx="517.93" cy="534.02" r="2.5621"/>
   <circle cx="560.77" cy="526.32" r="2.5322"/>
   <circle cx="574.29" cy="542.89" r="4.9524"/>
   <circle cx="706.31" cy="653.77" r="3.7511"/>
   <circle cx="719.67" cy="677.56" r="5.4918"/>
   <circle cx="697.13" cy="599.59" r="4.1069"/>
   <circle cx="665.36" cy="595.47" r="6.89"/>
   <circle cx="538.31" cy="511.06" r=".59858"/>
   <circle cx="743.02" cy="617.75" r="1.2212"/>
   <circle cx="528.73" cy="527.65" r=".59858"/>
   <circle cx="554.42" cy="536.33" r=".85024"/>
   <circle cx="723.48" cy="651.59" r="1.2212"/>
   <circle cx="688.4" cy="616.77" r="1.3853"/>
   <circle cx="544.43" cy="510.04" r=".64396"/>
   <circle cx="541.52" cy="500" r=".86507"/>
   <circle cx="737.51" cy="606.65" r="1.2567"/>
   <circle cx="756.93" cy="598.55" r="1.7967"/>
   <circle cx="530.91" cy="533.46" r=".64396"/>
   <circle cx="520.76" cy="535.96" r=".86507"/>
   <circle cx="558.67" cy="528.96" r=".85024"/>
   <circle cx="572.56" cy="536.66" r="1.5118"/>
   <circle cx="711.12" cy="652.36" r="1.2567"/>
   <circle cx="713.81" cy="673.23" r="1.7967"/>
   <circle cx="695.33" cy="604.78" r="1.3853"/>
   <circle cx="674.07" cy="592.96" r="2.1759"/>
   <circle cx="535.52" cy="508.58" r=".64588"/>
   <circle cx="534.42" cy="512.92" r=".86038"/>
   <circle cx="750.56" cy="619.5" r="1.3617"/>
   <circle cx="744.35" cy="626.55" r="1.7967"/>
   <circle cx="525.19" cy="526.48" r=".64588"/>
   <circle cx="528.39" cy="523.35" r=".86038"/>
   <circle cx="555.94" cy="541.69" r="1.0171"/>
   <circle cx="549.44" cy="539.96" r="1.236"/>
   <circle cx="728.77" cy="657.24" r="1.3617"/>
   <circle cx="731.77" cy="648.34" r="1.7967"/>
   <circle cx="679.63" cy="618.53" r="1.6038"/>
   <circle cx="686.75" cy="626.77" r="2.0521"/>
   <circle cx="546.33" cy="506.37" r=".73535"/>
   <circle cx="549.29" cy="510.67" r="1.0268"/>
   <circle cx="536.69" cy="501.41" r=".81525"/>
   <circle cx="537.06" cy="494.65" r="1.5441"/>
   <circle cx="740.89" cy="599.34" r="1.4339"/>
   <circle cx="730.94" cy="600" r="1.9245"/>
   <circle cx="761.21" cy="608.3" r="1.7531"/>
   <circle cx="771.83" cy="598.09" r="3.3979"/>
   <circle cx="528.68" cy="536.94" r=".73535"/>
   <circle cx="533.88" cy="537.35" r="1.0268"/>
   <circle cx="519.57" cy="531.07" r=".81525"/>
   <circle cx="513.9" cy="534.77" r="1.5441"/>
   <circle cx="564.08" cy="527.6" r="1.0171"/>
   <circle cx="559.33" cy="522.84" r="1.236"/>
   <circle cx="568.03" cy="544.51" r="1.5118"/>
   <circle cx="581.52" cy="547.06" r="3.3965"/>
   <circle cx="706.48" cy="658.95" r="1.4339"/>
   <circle cx="702.07" cy="650" r="1.9245"/>
   <circle cx="724.39" cy="672.06" r="1.7531"/>
   <circle cx="720.86" cy="686.37" r="3.3979"/>
   <circle cx="692.46" cy="596.3" r="1.6038"/>
   <circle cx="703.16" cy="598.34" r="2.0521"/>
   <circle cx="667.54" cy="604.27" r="2.1759"/>
   <circle cx="655.54" cy="589.8" r="4.4441"/>
   <circle cx="744.67" cy="617.72" r=".42477"/>
   <circle cx="555.01" cy="537.31" r=".30059"/>
   <circle cx="724.28" cy="653.03" r=".42477"/>
   <circle cx="686.53" cy="616.67" r=".48577"/>
   <circle cx="540.48" cy="500.5" r=".28712"/>
   <circle cx="738.56" cy="605.33" r=".43854"/>
   <circle cx="757.55" cy="600.86" r=".60034"/>
   <circle cx="520.67" cy="534.81" r=".28712"/>
   <circle cx="559.82" cy="528.98" r=".30059"/>
   <circle cx="571.36" cy="538.28" r=".50612"/>
   <circle cx="710.5" cy="653.94" r=".43854"/>
   <circle cx="716.12" cy="672.61" r=".60034"/>
   <circle cx="694.31" cy="603.21" r=".48577"/>
   <circle cx="672.98" cy="595.65" r=".72986"/>
   <circle cx="534.21" cy="511.79" r=".2875"/>
   <circle cx="748.94" cy="618.68" r=".4518"/>
   <circle cx="746.56" cy="625.6" r=".6043"/>
   <circle cx="527.31" cy="523.74" r=".2875"/>
   <circle cx="555.9" cy="540.35" r=".33276"/>
   <circle cx="550.68" cy="541.06" r=".4259"/>
   <circle cx="727.25" cy="656.25" r=".4518"/>
   <circle cx="732.05" cy="650.72" r=".6043"/>
   <circle cx="681.56" cy="617.62" r=".52779"/>
   <circle cx="684.22" cy="625.7" r=".69779"/>
   <circle cx="549.09" cy="509.32" r=".34328"/>
   <circle cx="537.77" cy="501.28" r=".27773"/>
   <circle cx="536.2" cy="496.47" r=".47009"/>
   <circle cx="740.5" cy="601.21" r=".4725"/>
   <circle cx="733.17" cy="598.72" r=".64769"/>
   <circle cx="759.94" cy="606.32" r=".59213"/>
   <circle cx="770.1" cy="602.17" r="1.0349"/>
   <circle cx="532.61" cy="537.85" r=".34328"/>
   <circle cx="520" cy="532.07" r=".27773"/>
   <circle cx="515.04" cy="533.11" r=".47009"/>
   <circle cx="562.89" cy="528.24" r=".33276"/>
   <circle cx="560.9" cy="523.36" r=".4259"/>
   <circle cx="568.83" cy="542.66" r=".50612"/>
   <circle cx="577.23" cy="548.06" r="1.003"/>
   <circle cx="707.9" cy="657.68" r=".4725"/>
   <circle cx="702.08" cy="652.57" r=".64769"/>
   <circle cx="722.05" cy="671.96" r=".59213"/>
   <circle cx="723.53" cy="682.83" r="1.0349"/>
   <circle cx="692.64" cy="598.43" r=".52779"/>
   <circle cx="700.96" cy="596.69" r=".69779"/>
   <circle cx="669.33" cy="601.98" r=".72986"/>
   <circle cx="657.13" cy="595.37" r="1.343"/>
   <circle cx="539.21" cy="511.06" r=".30397"/>
   <circle cx="742.6" cy="619.37" r=".45947"/>
   <circle cx="741.97" cy="616.24" r=".6157"/>
   <circle cx="529.18" cy="528.43" r=".30397"/>
   <circle cx="553.29" cy="536.63" r=".31719"/>
   <circle cx="554.94" cy="535.16" r=".4259"/>
   <circle cx="724.68" cy="650.41" r=".45947"/>
   <circle cx="721.65" cy="651.43" r=".6157"/>
   <circle cx="688.83" cy="618.63" r=".52019"/>
   <circle cx="689.66" cy="615.12" r=".69473"/>
   <circle cx="543.52" cy="510.35" r=".32"/>
   <circle cx="541.32" cy="498.81" r=".34437"/>
   <circle cx="542.58" cy="500.74" r=".43013"/>
   <circle cx="735.91" cy="606" r=".47562"/>
   <circle cx="738.09" cy="608.45" r=".62821"/>
   <circle cx="759.07" cy="597.22" r=".71963"/>
   <circle cx="754.33" cy="597.89" r=".88309"/>
   <circle cx="530.72" cy="532.52" r=".32"/>
   <circle cx="519.63" cy="536.38" r=".34437"/>
   <circle cx="521.94" cy="536.51" r=".43013"/>
   <circle cx="558.36" cy="527.84" r=".31719"/>
   <circle cx="557.92" cy="530" r=".4259"/>
   <circle cx="574.59" cy="537.32" r=".6216"/>
   <circle cx="571.58" cy="534.65" r=".72307"/>
   <circle cx="709.75" cy="651.3" r=".47562"/>
   <circle cx="712.96" cy="651.97" r=".62821"/>
   <circle cx="713.73" cy="675.75" r=".71963"/>
   <circle cx="711.94" cy="671.31" r=".88309"/>
   <circle cx="697.15" cy="604.21" r=".52019"/>
   <circle cx="694.52" cy="606.69" r=".69473"/>
   <circle cx="671.72" cy="591.01" r=".88062"/>
   <circle cx="677.28" cy="592.61" r="1.0553"/>
   <circle cx="535.43" cy="507.6" r=".33743"/>
   <circle cx="535.55" cy="512.83" r=".27773"/>
   <circle cx="533.6" cy="514.03" r=".51699"/>
   <circle cx="750.12" cy="621.32" r=".51253"/>
   <circle cx="752.35" cy="618.46" r=".71488"/>
   <circle cx="743.2" cy="624.48" r=".57494"/>
   <circle cx="743.31" cy="629.24" r="1.0814"/>
   <circle cx="524.3" cy="526.88" r=".33743"/>
   <circle cx="528.88" cy="524.37" r=".27773"/>
   <circle cx="528.95" cy="522.09" r=".51699"/>
   <circle cx="554.59" cy="542.02" r=".37907"/>
   <circle cx="557.27" cy="542.51" r=".54546"/>
   <circle cx="550.37" cy="538.63" r=".39355"/>
   <circle cx="547.48" cy="540.06" r=".73039"/>
   <circle cx="730.13" cy="655.94" r=".51253"/>
   <circle cx="728.76" cy="659.32" r=".71488"/>
   <circle cx="729.4" cy="648.38" r=".57494"/>
   <circle cx="733.58" cy="646.09" r="1.0814"/>
   <circle cx="680.11" cy="620.68" r=".60237"/>
   <circle cx="677.55" cy="617.22" r=".84952"/>
   <circle cx="688.06" cy="624.41" r=".65298"/>
   <circle cx="687.98" cy="629.81" r="1.2286"/>
   <circle cx="547.24" cy="506.82" r=".28118"/>
   <circle cx="545.97" cy="505.31" r=".38309"/>
   <circle cx="547.97" cy="510.97" r=".32195"/>
   <circle cx="550.6" cy="511.69" r=".63249"/>
   <circle cx="536.22" cy="500.37" r=".32339"/>
   <circle cx="536.21" cy="502.53" r=".39789"/>
   <circle cx="538.9" cy="495.51" r=".48624"/>
   <circle cx="536.11" cy="492.26" r="1.0317"/>
   <circle cx="739.1" cy="598.51" r=".5434"/>
   <circle cx="742.94" cy="598.57" r=".75213"/>
   <circle cx="731.99" cy="602.3" r=".6089"/>
   <circle cx="727.94" cy="599.21" r="1.1689"/>
   <circle cx="763.57" cy="607.66" r=".70099"/>
   <circle cx="759.98" cy="610.6" r=".85518"/>
   <circle cx="767.73" cy="596.38" r="1.0499"/>
   <circle cx="777.15" cy="596.01" r="2.3096"/>
   <circle cx="529.52" cy="537.5" r=".28118"/>
   <circle cx="527.58" cy="537.16" r=".38309"/>
   <circle cx="533.48" cy="536.06" r=".32195"/>
   <circle cx="535.42" cy="537.98" r=".63249"/>
   <circle cx="518.43" cy="531.18" r=".32339"/>
   <circle cx="520.29" cy="530.09" r=".39789"/>
   <circle cx="515.56" cy="535.93" r=".48624"/>
   <circle cx="511.35" cy="535.14" r="1.0317"/>
   <circle cx="563.68" cy="526.26" r=".37907"/>
   <circle cx="565.46" cy="528.34" r=".54546"/>
   <circle cx="558.64" cy="524.31" r=".39355"/>
   <circle cx="558.43" cy="521.08" r=".73039"/>
   <circle cx="569.62" cy="545.94" r=".6216"/>
   <circle cx="565.8" cy="544.67" r=".72307"/>
   <circle cx="580.24" cy="542.85" r="1.003"/>
   <circle cx="586.6" cy="550" r="2.4743"/>
   <circle cx="704.86" cy="657.81" r=".5434"/>
   <circle cx="706.84" cy="661.1" r=".75213"/>
   <circle cx="704.59" cy="649.76" r=".6089"/>
   <circle cx="699.89" cy="647.8" r="1.1689"/>
   <circle cx="725.02" cy="674.43" r=".70099"/>
   <circle cx="725.77" cy="669.85" r=".85518"/>
   <circle cx="717.33" cy="683.67" r="1.0499"/>
   <circle cx="721.72" cy="692.01" r="2.3096"/>
   <circle cx="694.56" cy="595.64" r=".60237"/>
   <circle cx="690.29" cy="595.15" r=".84952"/>
   <circle cx="701.77" cy="600.66" r=".65298"/>
   <circle cx="706.41" cy="597.89" r="1.2286"/>
   <circle cx="664.68" cy="603.21" r=".88062"/>
   <circle cx="668.84" cy="607.23" r="1.0553"/>
   <circle cx="661.16" cy="588.39" r="1.343"/>
   <circle cx="649.01" cy="586.03" r="3.1043"/>
   <circle cx="672.48" cy="594.8" r=".25859"/>
   <circle cx="769.43" cy="600.96" r=".34765"/>
   <circle cx="577.79" cy="546.85" r=".3353"/>
   <circle cx="722.15" cy="682.85" r=".34765"/>
   <circle cx="668.34" cy="601.97" r=".25859"/>
   <circle cx="658.18" cy="593.92" r=".44939"/>
   <circle cx="755.3" cy="597.21" r=".30393"/>
   <circle cx="572.53" cy="534.89" r=".25183"/>
   <circle cx="711.84" cy="672.49" r=".30393"/>
   <circle cx="671.74" cy="592.18" r=".28767"/>
   <circle cx="676.24" cy="591.64" r=".36489"/>
   <circle cx="742.74" cy="627.94" r=".33026"/>
   <circle cx="732.17" cy="646.25" r=".33026"/>
   <circle cx="677.75" cy="618.34" r=".2835"/>
   <circle cx="688.6" cy="628.34" r=".37421"/>
   <circle cx="537.33" cy="492.82" r=".31108"/>
   <circle cx="742.05" cy="598.11" r=".25213"/>
   <circle cx="728.72" cy="600.52" r=".3546"/>
   <circle cx="761.1" cy="610.34" r=".29403"/>
   <circle cx="768.1" cy="597.73" r=".35046"/>
   <circle cx="774.37" cy="594.88" r=".68764"/>
   <circle cx="512.44" cy="535.92" r=".31108"/>
   <circle cx="566.48" cy="545.36" r=".25183"/>
   <circle cx="579.47" cy="543.94" r=".3353"/>
   <circle cx="585.62" cy="546.96" r=".71354"/>
   <circle cx="705.99" cy="660.56" r=".25213"/>
   <circle cx="701.41" cy="647.81" r=".3546"/>
   <circle cx="726.11" cy="670.94" r=".29403"/>
   <circle cx="718.69" cy="683.32" r=".35046"/>
   <circle cx="719.36" cy="690.17" r=".68764"/>
   <circle cx="691.36" cy="594.77" r=".2835"/>
   <circle cx="705.44" cy="599.17" r=".37421"/>
   <circle cx="665.7" cy="602.64" r=".28767"/>
   <circle cx="667.48" cy="606.81" r=".36489"/>
   <circle cx="660.43" cy="590.03" r=".44939"/>
   <circle cx="652.92" cy="585.14" r=".91024"/>
   <circle cx="757.82" cy="601.72" r=".30014"/>
   <circle cx="570.93" cy="538.91" r=".25334"/>
   <circle cx="717" cy="672.42" r=".30014"/>
   <circle cx="673.95" cy="595.41" r=".27179"/>
   <circle cx="672.52" cy="596.65" r=".36551"/>
   <circle cx="747.32" cy="625.11" r=".30014"/>
   <circle cx="732.01" cy="651.63" r=".30014"/>
   <circle cx="682.3" cy="617.35" r=".26193"/>
   <circle cx="684.42" cy="626.65" r=".27732"/>
   <circle cx="683.34" cy="625.13" r=".34789"/>
   <circle cx="732.35" cy="598.33" r=".25845"/>
   <circle cx="734.08" cy="598.39" r=".32154"/>
   <circle cx="759.5" cy="605.55" r=".29726"/>
   <circle cx="771.53" cy="601.9" r=".42427"/>
   <circle cx="769.26" cy="603.45" r=".49496"/>
   <circle cx="569.16" cy="541.98" r=".25334"/>
   <circle cx="578.26" cy="549.05" r=".41849"/>
   <circle cx="575.76" cy="548.11" r=".47348"/>
   <circle cx="701.33" cy="652.05" r=".25845"/>
   <circle cx="702.25" cy="653.52" r=".32154"/>
   <circle cx="721.16" cy="671.96" r=".29726"/>
   <circle cx="724.01" cy="684.2" r=".42427"/>
   <circle cx="724.22" cy="681.46" r=".49496"/>
   <circle cx="692.78" cy="599.2" r=".26193"/>
   <circle cx="701.89" cy="596.39" r=".27732"/>
   <circle cx="700.03" cy="596.21" r=".34789"/>
   <circle cx="669.6" cy="602.94" r=".27179"/>
   <circle cx="669.96" cy="601.08" r=".36551"/>
   <circle cx="655.32" cy="594.8" r=".55471"/>
   <circle cx="658.02" cy="597.14" r=".63975"/>
   <circle cx="741.44" cy="615.41" r=".37087"/>
   <circle cx="555.24" cy="534.55" r=".25573"/>
   <circle cx="720.67" cy="651.38" r=".37087"/>
   <circle cx="688.92" cy="619.42" r=".27144"/>
   <circle cx="690.31" cy="614.21" r=".41734"/>
   <circle cx="543.11" cy="501.19" r=".25661"/>
   <circle cx="738.44" cy="609.39" r=".37668"/>
   <circle cx="758.14" cy="596.88" r=".2689"/>
   <circle cx="760.07" cy="596.77" r=".3853"/>
   <circle cx="754.88" cy="598.91" r=".2804"/>
   <circle cx="752.94" cy="597.66" r=".52369"/>
   <circle cx="522.58" cy="536.74" r=".25661"/>
   <circle cx="557.54" cy="530.56" r=".25573"/>
   <circle cx="575.46" cy="537.73" r=".33687"/>
   <circle cx="570.99" cy="533.67" r=".42258"/>
   <circle cx="713.95" cy="651.8" r=".37668"/>
   <circle cx="712.97" cy="675.12" r=".2689"/>
   <circle cx="713.84" cy="676.85" r=".3853"/>
   <circle cx="713.1" cy="671.28" r=".2804"/>
   <circle cx="711.05" cy="670.22" r=".52369"/>
   <circle cx="697.88" cy="603.9" r=".27144"/>
   <circle cx="694.06" cy="607.7" r=".41734"/>
   <circle cx="672.9" cy="590.75" r=".32746"/>
   <circle cx="670.58" cy="590.28" r=".47384"/>
   <circle cx="676.46" cy="593.73" r=".33612"/>
   <circle cx="678.96" cy="592.56" r=".62138"/>
   <circle cx="533.11" cy="514.74" r=".34492"/>
   <circle cx="749.83" cy="622.05" r=".26691"/>
   <circle cx="753.31" cy="617.81" r=".43978"/>
   <circle cx="742.9" cy="623.68" r=".28113"/>
   <circle cx="744.61" cy="628.67" r=".33974"/>
   <circle cx="742.6" cy="630.9" r=".72203"/>
   <circle cx="529.32" cy="521.31" r=".34492"/>
   <circle cx="558.06" cy="542.93" r=".33951"/>
   <circle cx="546.26" cy="540.07" r=".48191"/>
   <circle cx="730.61" cy="655.33" r=".26691"/>
   <circle cx="728.68" cy="660.47" r=".43978"/>
   <circle cx="728.56" cy="648.51" r=".28113"/>
   <circle cx="733.74" cy="647.5" r=".33974"/>
   <circle cx="734.66" cy="644.65" r=".72203"/>
   <circle cx="680.43" cy="621.53" r=".31325"/>
   <circle cx="678.63" cy="616.94" r=".26582"/>
   <circle cx="676.44" cy="616.42" r=".52511"/>
   <circle cx="688.46" cy="625.23" r=".25852"/>
   <circle cx="688.41" cy="623.5" r=".3188"/>
   <circle cx="686.49" cy="629.2" r=".38851"/>
   <circle cx="688.83" cy="631.68" r=".81745"/>
   <circle cx="551.41" cy="512.37" r=".42843"/>
   <circle cx="535.61" cy="493.5" r=".30439"/>
   <circle cx="535.42" cy="490.63" r=".73786"/>
   <circle cx="738.31" cy="598.28" r=".2837"/>
   <circle cx="744.1" cy="598.23" r=".46232"/>
   <circle cx="732.48" cy="603.06" r=".29653"/>
   <circle cx="729.27" cy="598.43" r=".36742"/>
   <circle cx="726.04" cy="598.78" r=".78485"/>
   <circle cx="763.2" cy="608.54" r=".26112"/>
   <circle cx="764.57" cy="607.25" r=".37528"/>
   <circle cx="759.6" cy="609.53" r=".27298"/>
   <circle cx="759.25" cy="611.75" r=".50535"/>
   <circle cx="768.96" cy="595.56" r=".43102"/>
   <circle cx="766.21" cy="596.06" r=".50418"/>
   <circle cx="775.86" cy="598.71" r=".68115"/>
   <circle cx="780.87" cy="594.59" r="1.6718"/>
   <circle cx="536.42" cy="538.34" r=".42843"/>
   <circle cx="512.18" cy="534.09" r=".30439"/>
   <circle cx="509.59" cy="535.36" r=".73786"/>
   <circle cx="566.2" cy="528.81" r=".33951"/>
   <circle cx="557.83" cy="520.03" r=".48191"/>
   <circle cx="570.41" cy="546.48" r=".33687"/>
   <circle cx="564.65" cy="544.65" r=".42258"/>
   <circle cx="581.61" cy="543.25" r=".41849"/>
   <circle cx="579.54" cy="541.55" r=".47348"/>
   <circle cx="583.48" cy="550.67" r=".71354"/>
   <circle cx="590.37" cy="552.18" r="1.8828"/>
   <circle cx="704.26" cy="657.24" r=".2837"/>
   <circle cx="707.12" cy="662.29" r=".46232"/>
   <circle cx="705.5" cy="649.8" r=".29653"/>
   <circle cx="699.87" cy="649.34" r=".36742"/>
   <circle cx="698.57" cy="646.36" r=".78485"/>
   <circle cx="725.6" cy="673.67" r=".26112"/>
   <circle cx="725.17" cy="675.5" r=".37528"/>
   <circle cx="724.66" cy="670.05" r=".27298"/>
   <circle cx="726.4" cy="668.64" r=".50535"/>
   <circle cx="717.24" cy="685.15" r=".43102"/>
   <circle cx="716.29" cy="682.51" r=".50418"/>
   <circle cx="723.42" cy="689.55" r=".68115"/>
   <circle cx="722.35" cy="695.94" r="1.6718"/>
   <circle cx="695.47" cy="595.49" r=".31325"/>
   <circle cx="690.59" cy="596.23" r=".26582"/>
   <circle cx="689.04" cy="594.59" r=".52511"/>
   <circle cx="702.68" cy="600.6" r=".25852"/>
   <circle cx="701.16" cy="601.42" r=".3188"/>
   <circle cx="705.13" cy="596.9" r=".38851"/>
   <circle cx="708.45" cy="597.69" r=".81745"/>
   <circle cx="665.04" cy="604.36" r=".32746"/>
   <circle cx="663.47" cy="602.59" r=".47384"/>
   <circle cx="669.4" cy="605.96" r=".33612"/>
   <circle cx="669.64" cy="608.7" r=".62138"/>
   <circle cx="659.76" cy="587.11" r=".55471"/>
   <circle cx="663.14" cy="588.28" r=".63975"/>
   <circle cx="650.19" cy="589.87" r=".91024"/>
   <circle cx="644.33" cy="583.33" r="2.291"/>
   <circle cx="652.41" cy="586.24" r=".30421"/>
   <circle cx="779.89" cy="596.51" r=".48174"/>
   <circle cx="588.01" cy="552.66" r=".53337"/>
   <circle cx="723.53" cy="694.14" r=".48174"/>
   <circle cx="650.89" cy="588.87" r=".30421"/>
   <circle cx="645.25" cy="586.13" r=".65722"/>
   <circle cx="775.17" cy="594.33" r=".28663"/>
   <circle cx="773.37" cy="594.7" r=".32544"/>
   <circle cx="586.61" cy="547.22" r=".30071"/>
   <circle cx="585.11" cy="546.05" r=".33375"/>
   <circle cx="719.27" cy="691.14" r=".28663"/>
   <circle cx="718.7" cy="689.4" r=".32544"/>
   <circle cx="651.99" cy="584.24" r=".38094"/>
   <circle cx="654.26" cy="585.1" r=".4285"/>
   <circle cx="768.77" cy="604.06" r=".28931"/>
   <circle cx="575.01" cy="548.07" r=".27476"/>
   <circle cx="724.51" cy="680.73" r=".28931"/>
   <circle cx="654.54" cy="594.44" r=".30125"/>
   <circle cx="658.55" cy="598" r=".37306"/>
   <circle cx="690.7" cy="613.64" r=".27839"/>
   <circle cx="738.67" cy="609.97" r=".25096"/>
   <circle cx="752.08" cy="597.56" r=".34626"/>
   <circle cx="570.6" cy="533.09" r=".27687"/>
   <circle cx="714.57" cy="651.7" r=".25096"/>
   <circle cx="710.53" cy="669.53" r=".34626"/>
   <circle cx="693.76" cy="608.33" r=".27839"/>
   <circle cx="669.91" cy="589.91" r=".29549"/>
   <circle cx="679.99" cy="592.58" r=".40907"/>
   <circle cx="753.91" cy="617.38" r=".29766"/>
   <circle cx="742.1" cy="632.03" r=".5162"/>
   <circle cx="545.44" cy="540.04" r=".34165"/>
   <circle cx="728.61" cy="661.2" r=".29766"/>
   <circle cx="735.39" cy="643.65" r=".5162"/>
   <circle cx="675.74" cy="615.87" r=".35648"/>
   <circle cx="689.44" cy="632.93" r=".58291"/>
   <circle cx="551.96" cy="512.86" r=".30931"/>
   <circle cx="534.89" cy="489.45" r=".55383"/>
   <circle cx="744.85" cy="598.04" r=".31271"/>
   <circle cx="724.71" cy="598.52" r=".56319"/>
   <circle cx="758.77" cy="612.43" r=".33346"/>
   <circle cx="765.41" cy="595.96" r=".29523"/>
   <circle cx="776.82" cy="598.58" r=".28363"/>
   <circle cx="775.27" cy="599.51" r=".32157"/>
   <circle cx="778.86" cy="593.8" r=".48498"/>
   <circle cx="783.62" cy="593.57" r="1.2662"/>
   <circle cx="537.12" cy="538.57" r=".30931"/>
   <circle cx="508.31" cy="535.49" r=".55383"/>
   <circle cx="557.4" cy="519.33" r=".34165"/>
   <circle cx="563.96" cy="544.6" r=".27687"/>
   <circle cx="579.13" cy="540.93" r=".27476"/>
   <circle cx="584.2" cy="551.39" r=".30071"/>
   <circle cx="582.44" cy="550.68" r=".33375"/>
   <circle cx="589.61" cy="549.89" r=".53337"/>
   <circle cx="593.29" cy="553.86" r="1.4807"/>
   <circle cx="707.33" cy="663.03" r=".31271"/>
   <circle cx="697.68" cy="645.35" r=".56319"/>
   <circle cx="726.75" cy="667.88" r=".33346"/>
   <circle cx="715.81" cy="681.87" r=".29523"/>
   <circle cx="723.78" cy="690.44" r=".28363"/>
   <circle cx="723.82" cy="688.63" r=".32157"/>
   <circle cx="720.66" cy="694.6" r=".48498"/>
   <circle cx="722.85" cy="698.84" r="1.2662"/>
   <circle cx="688.22" cy="594.26" r=".35648"/>
   <circle cx="709.85" cy="597.6" r=".58291"/>
   <circle cx="662.82" cy="602.19" r=".29549"/>
   <circle cx="670.17" cy="609.59" r=".40907"/>
   <circle cx="659.06" cy="586.61" r=".30125"/>
   <circle cx="664.15" cy="588.31" r=".37306"/>
   <circle cx="648.95" cy="589.51" r=".38094"/>
   <circle cx="650.83" cy="591.04" r=".4285"/>
   <circle cx="647.22" cy="582.72" r=".65722"/>
   <circle cx="640.83" cy="581.31" r="1.7603"/>
   <circle cx="782.11" cy="592.98" r=".36029"/>
   <circle cx="592.67" cy="552.07" r=".4137"/>
   <circle cx="721.58" cy="697.82" r=".36029"/>
   <circle cx="643.04" cy="580.86" r=".49666"/>
   <circle cx="644.34" cy="585.9" r=".27758"/>
   <circle cx="645.73" cy="586.97" r=".3068"/>
   <circle cx="680.69" cy="592.62" r=".28956"/>
   <circle cx="741.71" cy="632.84" r=".38736"/>
   <circle cx="544.84" cy="540.01" r=".2548"/>
   <circle cx="735.9" cy="642.91" r=".38736"/>
   <circle cx="675.27" cy="615.48" r=".25775"/>
   <circle cx="689.91" cy="633.84" r=".43657"/>
   <circle cx="534.48" cy="488.55" r=".43099"/>
   <circle cx="723.74" cy="598.35" r=".42376"/>
   <circle cx="782.86" cy="595" r=".3585"/>
   <circle cx="785.74" cy="592.8" r=".99217"/>
   <circle cx="507.33" cy="535.58" r=".43099"/>
   <circle cx="557.07" cy="518.83" r=".2548"/>
   <circle cx="591.43" cy="554.22" r=".4137"/>
   <circle cx="595.6" cy="555.2" r="1.195"/>
   <circle cx="697.05" cy="644.59" r=".42376"/>
   <circle cx="723.7" cy="697.46" r=".3585"/>
   <circle cx="723.24" cy="701.06" r=".99217"/>
   <circle cx="687.64" cy="594.05" r=".25775"/>
   <circle cx="710.86" cy="597.55" r=".43657"/>
   <circle cx="670.55" cy="610.17" r=".28956"/>
   <circle cx="646.56" cy="582.05" r=".27758"/>
   <circle cx="648.18" cy="582.72" r=".3068"/>
   <circle cx="641.55" cy="583.44" r=".49666"/>
   <circle cx="638.09" cy="579.73" r="1.3949"/>
   <circle cx="785.13" cy="593.91" r=".27709"/>
   <circle cx="594.1" cy="555.47" r=".33019"/>
   <circle cx="723.89" cy="699.97" r=".27709"/>
   <circle cx="638.68" cy="581.41" r=".38846"/>
   <circle cx="741.42" cy="633.47" r=".3014"/>
   <circle cx="736.29" cy="642.34" r=".3014"/>
   <circle cx="690.27" cy="634.53" r=".33917"/>
   <circle cx="534.15" cy="487.85" r=".34492"/>
   <circle cx="723" cy="598.23" r=".33037"/>
   <circle cx="784.56" cy="592.34" r=".27816"/>
   <circle cx="787.43" cy="592.19" r=".79842"/>
   <circle cx="506.55" cy="535.65" r=".34492"/>
   <circle cx="595.09" cy="553.76" r=".33019"/>
   <circle cx="597.49" cy="556.29" r=".98476"/>
   <circle cx="696.57" cy="644.01" r=".33037"/>
   <circle cx="722.25" cy="700.26" r=".27816"/>
   <circle cx="723.56" cy="702.83" r=".79842"/>
   <circle cx="711.64" cy="597.52" r=".33917"/>
   <circle cx="639.84" cy="579.39" r=".38846"/>
   <circle cx="635.9" cy="578.46" r="1.1325"/>
   <circle cx="597.07" cy="555.11" r=".26963"/>
   <circle cx="637.33" cy="578.2" r=".3121"/>
   <circle cx="690.56" cy="635.06" r=".27107"/>
   <circle cx="533.87" cy="487.29" r=".28228"/>
   <circle cx="722.41" cy="598.14" r=".26477"/>
   <circle cx="788.8" cy="591.71" r=".65637"/>
   <circle cx="505.93" cy="535.69" r=".28228"/>
   <circle cx="596.26" cy="556.51" r=".26963"/>
   <circle cx="599.06" cy="557.19" r=".8255"/>
   <circle cx="696.2" cy="643.54" r=".26477"/>
   <circle cx="723.82" cy="704.26" r=".65637"/>
   <circle cx="712.25" cy="597.5" r=".27107"/>
   <circle cx="636.39" cy="579.83" r=".3121"/>
   <circle cx="634.11" cy="577.43" r=".93784"/>
   <circle cx="634.52" cy="578.55" r=".25622"/>
   <circle cx="789.94" cy="591.31" r=".54913"/>
   <circle cx="600.38" cy="557.96" r=".70197"/>
   <circle cx="724.04" cy="705.44" r=".54913"/>
   <circle cx="635.29" cy="577.22" r=".25622"/>
   <circle cx="632.62" cy="576.57" r=".78938"/>
   <circle cx="790.9" cy="590.97" r=".46618"/>
   <circle cx="601.51" cy="558.61" r=".60425"/>
   <circle cx="724.23" cy="706.44" r=".46618"/>
   <circle cx="631.35" cy="575.83" r=".67358"/>
   <circle cx="791.72" cy="590.69" r=".40071"/>
   <circle cx="602.49" cy="559.17" r=".5256"/>
   <circle cx="724.4" cy="707.29" r=".40071"/>
   <circle cx="630.26" cy="575.21" r=".58153"/>
   <circle cx="792.42" cy="590.45" r=".34812"/>
   <circle cx="603.35" cy="559.67" r=".46137"/>
   <circle cx="724.54" cy="708.02" r=".34812"/>
   <circle cx="629.32" cy="574.66" r=".50713"/>
   <circle cx="793.04" cy="590.23" r=".30525"/>
   <circle cx="604.1" cy="560.1" r=".40823"/>
   <circle cx="724.67" cy="708.67" r=".30525"/>
   <circle cx="628.49" cy="574.19" r=".44616"/>
   <circle cx="793.59" cy="590.05" r=".26984"/>
   <circle cx="604.77" cy="560.49" r=".36378"/>
   <circle cx="724.78" cy="709.23" r=".26984"/>
   <circle cx="627.76" cy="573.76" r=".39555"/>
   <circle cx="605.37" cy="560.83" r=".32621"/>
   <circle cx="627.12" cy="573.39" r=".3531"/>
   <circle cx="605.9" cy="561.14" r=".29418"/>
   <circle cx="626.54" cy="573.06" r=".31713"/>
   <circle cx="606.39" cy="561.42" r=".26664"/>
   <circle cx="626.01" cy="572.75" r=".28639"/>
   <circle cx="625.54" cy="572.48" r=".25992"/>
   <g id="b">
    <circle cx="775.24" cy="849.6" r="55.048"/>
    <circle cx="718.6" cy="914.68" r="31.228"/>
    <circle cx="848.75" cy="827.19" r="21.797"/>
    <circle cx="746.89" cy="785.08" r="15.43"/>
    <circle cx="678.23" cy="945.9" r="19.803"/>
    <circle cx="838.66" cy="855.95" r="8.6835"/>
    <circle cx="767.42" cy="789.49" r="5.5713"/>
    <circle cx="760.68" cy="913.89" r="10.862"/>
    <circle cx="716.23" cy="874.51" r="9.0094"/>
    <circle cx="877.37" cy="810.3" r="11.435"/>
    <circle cx="824.44" cy="812.2" r="6.7593"/>
    <circle cx="735.46" cy="803.25" r="6.0373"/>
    <circle cx="739.26" cy="763.72" r="7.2504"/>
    <circle cx="649.47" cy="962.9" r="13.589"/>
    <circle cx="832.14" cy="867.55" r="4.6131"/>
    <circle cx="761.63" cy="794.27" r="1.938"/>
    <circle cx="752.2" cy="926.6" r="4.4245"/>
    <circle cx="726.38" cy="881.2" r="3.1441"/>
    <circle cx="874.42" cy="825.4" r="3.9413"/>
    <circle cx="833.04" cy="808.55" r="2.5817"/>
    <circle cx="743.45" cy="802.2" r="2.0288"/>
    <circle cx="734.48" cy="772.18" r="2.4682"/>
    <circle cx="704.17" cy="949.4" r="6.3804"/>
    <circle cx="682.17" cy="920.71" r="5.6929"/>
    <circle cx="850.1" cy="852.29" r="3.3343"/>
    <circle cx="832.95" cy="846.02" r="2.7746"/>
    <circle cx="764.19" cy="782.59" r="2.048"/>
    <circle cx="775.57" cy="791.69" r="2.8705"/>
    <circle cx="776.51" cy="910.06" r="5.4217"/>
    <circle cx="751.3" cy="903.02" r="3.4903"/>
    <circle cx="706.16" cy="882.13" r="3.6168"/>
    <circle cx="717.1" cy="861.28" r="4.2568"/>
    <circle cx="891.96" cy="799.03" r="6.9992"/>
    <circle cx="862.99" cy="806.3" r="3.4903"/>
    <circle cx="825.26" cy="821.33" r="2.4093"/>
    <circle cx="815.58" cy="807.46" r="3.2873"/>
    <circle cx="732.64" cy="795.49" r="2.2156"/>
    <circle cx="731.2" cy="811.46" r="3.2111"/>
    <circle cx="748.21" cy="767.31" r="2.3866"/>
    <circle cx="735.78" cy="752.8" r="4.2103"/>
    <circle cx="628.33" cy="973" r="9.8713"/>
    <circle cx="827.9" cy="873.68" r="2.8513"/>
    <circle cx="761.58" cy="791.67" r=".66559"/>
    <circle cx="747.62" cy="931.6" r="2.3809"/>
    <circle cx="722.35" cy="882.57" r="1.1062"/>
    <circle cx="872.22" cy="830.88" r="1.9694"/>
    <circle cx="832.06" cy="811.85" r=".867"/>
    <circle cx="741.51" cy="800.29" r=".70002"/>
    <circle cx="737.73" cy="771.65" r=".82546"/>
    <circle cx="698.19" cy="956.2" r="2.6425"/>
    <circle cx="687.48" cy="926.21" r="1.9529"/>
    <circle cx="848.6" cy="856.65" r="1.2816"/>
    <circle cx="836.67" cy="846.5" r=".97586"/>
    <circle cx="763" cy="785.06" r=".6867"/>
    <circle cx="773.83" cy="788.29" r=".9475"/>
    <circle cx="773.15" cy="916.55" r="1.8838"/>
    <circle cx="756.09" cy="902.61" r="1.3133"/>
    <circle cx="710.85" cy="883.19" r="1.198"/>
    <circle cx="712.52" cy="864.72" r="1.4657"/>
    <circle cx="890.87" cy="808.2" r="2.2336"/>
    <circle cx="866.72" cy="803.15" r="1.3891"/>
    <circle cx="827.61" cy="819.1" r=".83362"/>
    <circle cx="816.63" cy="811.7" r="1.0733"/>
    <circle cx="735.42" cy="796.48" r=".7357"/>
    <circle cx="729.74" cy="807.45" r="1.0587"/>
    <circle cx="745.43" cy="768.91" r=".81002"/>
    <circle cx="740.7" cy="755.28" r="1.3082"/>
    <circle cx="666.76" cy="966.9" r="4.169"/>
    <circle cx="654.56" cy="946.2" r="3.864"/>
    <circle cx="838.16" cy="866.18" r="1.5584"/>
    <circle cx="830.39" cy="861.77" r="1.4241"/>
    <circle cx="764.22" cy="794.92" r=".73394"/>
    <circle cx="759.22" cy="795.92" r=".98188"/>
    <circle cx="758.28" cy="926.18" r="1.6663"/>
    <circle cx="750.64" cy="920.97" r="1.4241"/>
    <circle cx="726.11" cy="876.91" r="1.1595"/>
    <circle cx="730.22" cy="883.98" r="1.5987"/>
    <circle cx="879.47" cy="823.15" r="1.5811"/>
    <circle cx="871.09" cy="821.37" r="1.2885"/>
    <circle cx="829.96" cy="806.8" r=".95919"/>
    <circle cx="836.8" cy="807.36" r="1.3581"/>
    <circle cx="742.12" cy="804.67" r=".77603"/>
    <circle cx="746.42" cy="801.52" r="1.0141"/>
    <circle cx="733.02" cy="769.07" r=".97091"/>
    <circle cx="733.16" cy="775.64" r="1.2336"/>
    <circle cx="713.62" cy="948.6" r="3.0959"/>
    <circle cx="699.79" cy="942.2" r="2.0812"/>
    <circle cx="674.86" cy="924.02" r="2.3315"/>
    <circle cx="684.75" cy="912.74" r="2.6775"/>
    <circle cx="854.63" cy="849.99" r="1.747"/>
    <circle cx="846.36" cy="849.95" r="1.0824"/>
    <circle cx="831.35" cy="849.5" r="1.062"/>
    <circle cx="831.18" cy="842.28" r="1.3629"/>
    <circle cx="766.95" cy="783.16" r=".77603"/>
    <circle cx="762.56" cy="779.95" r="1.0587"/>
    <circle cx="772.36" cy="793.71" r=".92326"/>
    <circle cx="780" cy="793.01" r="1.75"/>
    <circle cx="784.65" cy="907.12" r="3.2347"/>
    <circle cx="770.57" cy="906.15" r="1.691"/>
    <circle cx="750.3" cy="907.65" r="1.2453"/>
    <circle cx="747.71" cy="899.25" r="1.7202"/>
    <circle cx="706.24" cy="877.19" r="1.3306"/>
    <circle cx="702.08" cy="885.92" r="1.9431"/>
    <circle cx="721.04" cy="865.31" r="1.3815"/>
    <circle cx="717.93" cy="854.6" r="2.4765"/>
    <circle cx="900.65" cy="791.18" r="4.7135"/>
    <circle cx="882.94" cy="797.99" r="2.0812"/>
    <circle cx="864.73" cy="810.66" r="1.2037"/>
    <circle cx="857.87" cy="805.56" r="1.6802"/>
    <circle cx="822.45" cy="819.59" r=".8957"/>
    <circle cx="825.83" cy="824.93" r="1.2342"/>
    <circle cx="819.7" cy="805.93" r="1.1062"/>
    <circle cx="810.9" cy="805.14" r="1.9431"/>
    <circle cx="730.95" cy="798.05" r=".84907"/>
    <circle cx="731.93" cy="792.21" r="1.1425"/>
    <circle cx="735.26" cy="810.3" r="1.0141"/>
    <circle cx="729.02" cy="816.19" r="1.9915"/>
    <circle cx="747.44" cy="764.08" r=".93729"/>
    <circle cx="751.31" cy="769.07" r="1.1799"/>
    <circle cx="733.16" cy="757.69" r="1.3323"/>
    <circle cx="733.79" cy="746.13" r="2.7504"/>
    <circle cx="612.25" cy="979.6" r="7.483"/>
    <circle cx="824.95" cy="877.46" r="1.9342"/>
    <circle cx="744.79" cy="934.3" r="1.4836"/>
    <circle cx="722.85" cy="881.17" r=".37964"/>
    <circle cx="870.78" cy="833.68" r="1.1771"/>
    <circle cx="831.38" cy="810.9" r=".30017"/>
    <circle cx="736.92" cy="770.89" r=".29034"/>
    <circle cx="695.09" cy="958.8" r="1.4345"/>
    <circle cx="684.85" cy="926.5" r=".69234"/>
    <circle cx="847.69" cy="858.38" r=".67252"/>
    <circle cx="835.73" cy="847.42" r=".33844"/>
    <circle cx="773.31" cy="789.44" r=".3167"/>
    <circle cx="771.42" cy="918.79" r=".94572"/>
    <circle cx="755.09" cy="904.06" r=".4421"/>
    <circle cx="710.17" cy="881.73" r=".41453"/>
    <circle cx="714.42" cy="865.19" r=".48731"/>
    <circle cx="889.84" cy="811.35" r="1.0829"/>
    <circle cx="866.72" cy="805" r=".45897"/>
    <circle cx="826.5" cy="818.94" r=".28742"/>
    <circle cx="817.51" cy="810.56" r=".3637"/>
    <circle cx="734.59" cy="797.02" r=".25723"/>
    <circle cx="731.08" cy="807.9" r=".35225"/>
    <circle cx="745.58" cy="767.82" r=".28424"/>
    <circle cx="739.12" cy="756.03" r=".44038"/>
    <circle cx="662.47" cy="971" r="1.747"/>
    <circle cx="657.59" cy="950.4" r="1.3133"/>
    <circle cx="837.34" cy="868.21" r=".62586"/>
    <circle cx="832.18" cy="862.44" r=".48778"/>
    <circle cx="760.49" cy="796.23" r=".3289"/>
    <circle cx="757.03" cy="928.1" r=".64258"/>
    <circle cx="752.42" cy="921.69" r=".49788"/>
    <circle cx="724.97" cy="877.96" r=".3899"/>
    <circle cx="729.99" cy="881.87" r=".52871"/>
    <circle cx="878.96" cy="825.27" r=".59491"/>
    <circle cx="872.83" cy="821.3" r=".4569"/>
    <circle cx="830.18" cy="808.06" r=".31779"/>
    <circle cx="835.23" cy="806.45" r=".45058"/>
    <circle cx="741.74" cy="803.71" r=".25799"/>
    <circle cx="745.77" cy="802.71" r=".34135"/>
    <circle cx="734.26" cy="769.4" r=".31829"/>
    <circle cx="732.39" cy="774.17" r=".42099"/>
    <circle cx="711.16" cy="952" r="1.0829"/>
    <circle cx="702.64" cy="942.4" r=".7764"/>
    <circle cx="677.67" cy="925.34" r=".7658"/>
    <circle cx="681.42" cy="914.13" r=".93034"/>
    <circle cx="854.03" cy="852.24" r=".59004"/>
    <circle cx="847.74" cy="849.38" r=".4125"/>
    <circle cx="832.72" cy="849.14" r=".35509"/>
    <circle cx="830.46" cy="843.96" r=".45897"/>
    <circle cx="766.15" cy="783.81" r=".25616"/>
    <circle cx="763.95" cy="780.2" r=".35477"/>
    <circle cx="772.49" cy="792.48" r=".31213"/>
    <circle cx="777.99" cy="794.09" r=".53562"/>
    <circle cx="782.9" cy="911.02" r="1.0362"/>
    <circle cx="772.75" cy="905.27" r=".66852"/>
    <circle cx="751.8" cy="906.91" r=".42896"/>
    <circle cx="747.54" cy="901.52" r=".56131"/>
    <circle cx="707.58" cy="878.34" r=".4398"/>
    <circle cx="702.07" cy="883.33" r=".6415"/>
    <circle cx="719.2" cy="865.51" r=".4714"/>
    <circle cx="719.94" cy="857.14" r=".76368"/>
    <circle cx="900.21" cy="797.32" r="1.4345"/>
    <circle cx="884.83" cy="795.75" r=".84951"/>
    <circle cx="865.56" cy="809.25" r=".4231"/>
    <circle cx="859.11" cy="807.4" r=".54165"/>
    <circle cx="823.58" cy="819.2" r=".29934"/>
    <circle cx="824.45" cy="824.03" r=".40966"/>
    <circle cx="819.24" cy="807.33" r=".36992"/>
    <circle cx="813.31" cy="804.3" r=".61073"/>
    <circle cx="732.07" cy="797.92" r=".27893"/>
    <circle cx="731.03" cy="793.45" r=".38505"/>
    <circle cx="734.17" cy="809.5" r=".34386"/>
    <circle cx="731.44" cy="815.27" r=".60272"/>
    <circle cx="746.7" cy="765.08" r=".30876"/>
    <circle cx="750.99" cy="767.52" r=".40222"/>
    <circle cx="734.91" cy="757.38" r=".4449"/>
    <circle cx="732.14" cy="749.31" r=".83203"/>
    <circle cx="640.56" cy="976.8" r="2.9284"/>
    <circle cx="633.18" cy="961.4" r="2.7746"/>
    <circle cx="831.59" cy="873.03" r=".89862"/>
    <circle cx="827.28" cy="870.03" r=".85228"/>
    <circle cx="760.85" cy="792.22" r=".25082"/>
    <circle cx="761.63" cy="790.67" r=".33586"/>
    <circle cx="750.8" cy="931.6" r=".79618"/>
    <circle cx="747.41" cy="928.5" r=".73634"/>
    <circle cx="723.6" cy="883.44" r=".41717"/>
    <circle cx="720.73" cy="882.96" r=".56308"/>
    <circle cx="874.72" cy="830.01" r=".67885"/>
    <circle cx="871.12" cy="828.54" r=".61853"/>
    <circle cx="833.19" cy="811.45" r=".33055"/>
    <circle cx="831.58" cy="813.06" r=".43344"/>
    <circle cx="742.46" cy="800.14" r=".26268"/>
    <circle cx="740.7" cy="799.6" r=".35398"/>
    <circle cx="737.22" cy="772.66" r=".31009"/>
    <circle cx="738.94" cy="771.38" r=".41267"/>
    <circle cx="701.81" cy="956.4" r=".98442"/>
    <circle cx="697.73" cy="952.7" r=".85228"/>
    <circle cx="687.91" cy="923.57" r=".71997"/>
    <circle cx="689.45" cy="928.4" r=".98671"/>
    <circle cx="850.28" cy="856.11" r=".48991"/>
    <circle cx="847.73" cy="855.19" r=".41794"/>
    <circle cx="836.02" cy="845.33" r=".36405"/>
    <circle cx="838.12" cy="846.79" r=".49723"/>
    <circle cx="762.56" cy="784.22" r=".26047"/>
    <circle cx="762.63" cy="786.02" r=".34331"/>
    <circle cx="775.14" cy="788.47" r=".37794"/>
    <circle cx="772.99" cy="787.15" r=".46744"/>
    <circle cx="775.75" cy="916.19" r=".74933"/>
    <circle cx="772.16" cy="914.25" r=".61853"/>
    <circle cx="754.88" cy="901.27" r=".49015"/>
    <circle cx="758.09" cy="902.63" r=".6864"/>
    <circle cx="709.61" cy="884.29" r=".45968"/>
    <circle cx="712.63" cy="883.42" r=".59561"/>
    <circle cx="712.47" cy="862.67" r=".57736"/>
    <circle cx="710.99" cy="866.3" r=".73516"/>
    <circle cx="893.68" cy="806.76" r=".91766"/>
    <circle cx="888.79" cy="806.09" r=".73634"/>
    <circle cx="864.86" cy="802.76" r=".51461"/>
    <circle cx="868.49" cy="801.97" r=".74293"/>
    <circle cx="827.76" cy="820.24" r=".31515"/>
    <circle cx="828.45" cy="818.16" r=".42163"/>
    <circle cx="815.23" cy="811.16" r=".4237"/>
    <circle cx="817.22" cy="813.19" r=".52871"/>
    <circle cx="735.14" cy="795.51" r=".27893"/>
    <circle cx="736.43" cy="796.92" r=".36656"/>
    <circle cx="728.88" cy="808.67" r=".42464"/>
    <circle cx="729.46" cy="805.9" r=".52149"/>
    <circle cx="746.45" cy="769.35" r=".30314"/>
    <circle cx="744.35" cy="769.45" r=".40724"/>
    <circle cx="740.47" cy="753.46" r=".53084"/>
    <circle cx="742.27" cy="756.43" r=".6309"/>
    <circle cx="672.91" cy="967" r="1.9875"/>
    <circle cx="664.4" cy="961.9" r="1.37"/>
    <circle cx="649.3" cy="947.7" r="1.6054"/>
    <circle cx="657.15" cy="941.1" r="1.8063"/>
    <circle cx="840.31" cy="865.27" r=".77342"/>
    <circle cx="836.53" cy="864.9" r=".51301"/>
    <circle cx="829.14" cy="863.32" r=".56846"/>
    <circle cx="830.06" cy="859.68" r=".68762"/>
    <circle cx="763.43" cy="795.56" r=".27671"/>
    <circle cx="765.33" cy="795.07" r=".38398"/>
    <circle cx="759.4" cy="794.63" r=".31443"/>
    <circle cx="757.88" cy="796.74" r=".59282"/>
    <circle cx="760.74" cy="925.61" r=".86626"/>
    <circle cx="756.74" cy="924.59" r=".54394"/>
    <circle cx="749.4" cy="922.5" r=".54693"/>
    <circle cx="750.25" cy="918.88" r=".70098"/>
    <circle cx="727.44" cy="877.78" r=".43739"/>
    <circle cx="725.81" cy="875.17" r=".60057"/>
    <circle cx="728.15" cy="884.41" r=".51734"/>
    <circle cx="732.26" cy="885.53" r=".96777"/>
    <circle cx="881.52" cy="821.86" r=".84595"/>
    <circle cx="877.58" cy="822.25" r=".51301"/>
    <circle cx="870.65" cy="823.09" r=".4845"/>
    <circle cx="869.94" cy="819.82" r=".63892"/>
    <circle cx="831.17" cy="806.26" r=".36634"/>
    <circle cx="828.61" cy="806.26" r=".49714"/>
    <circle cx="836.02" cy="808.97" r=".42915"/>
    <circle cx="838.92" cy="806.8" r=".83684"/>
    <circle cx="743.18" cy="804.5" r=".29123"/>
    <circle cx="741.44" cy="805.64" r=".40784"/>
    <circle cx="745.32" cy="800.76" r=".32579"/>
    <circle cx="747.98" cy="801.08" r=".6078"/>
    <circle cx="732.4" cy="770.25" r=".36484"/>
    <circle cx="732.57" cy="767.65" r=".51567"/>
    <circle cx="734.67" cy="775.03" r=".39111"/>
    <circle cx="732.59" cy="777.53" r=".73839"/>
    <circle cx="718.45" cy="947.7" r="1.8204"/>
    <circle cx="710.63" cy="945.9" r=".97512"/>
    <circle cx="698.74" cy="944.8" r=".74436"/>
    <circle cx="698.08" cy="939.6" r="1.0317"/>
    <circle cx="675.63" cy="920.92" r=".85671"/>
    <circle cx="671.77" cy="925.85" r="1.263"/>
    <circle cx="686.53" cy="915.81" r=".86355"/>
    <circle cx="686.34" cy="908.83" r="1.5529"/>
    <circle cx="857.03" cy="848.51" r="1.0722"/>
    <circle cx="852.48" cy="849.22" r=".54394"/>
    <circle cx="846.49" cy="851.4" r=".37993"/>
    <circle cx="844.92" cy="849.19" r=".53477"/>
    <circle cx="830.67" cy="848.21" r=".39601"/>
    <circle cx="830.83" cy="851.04" r=".55884"/>
    <circle cx="832.9" cy="842.8" r=".4421"/>
    <circle cx="830.32" cy="840.28" r=".8096"/>
    <circle cx="766.5" cy="782.19" r=".2948"/>
    <circle cx="768.07" cy="783.55" r=".40555"/>
    <circle cx="762.19" cy="781.29" r=".33485"/>
    <circle cx="761.58" cy="778.55" r=".64587"/>
    <circle cx="773.55" cy="794.21" r=".36767"/>
    <circle cx="771.1" cy="794.26" r=".45184"/>
    <circle cx="778.91" cy="790.99" r=".54369"/>
    <circle cx="782.79" cy="793.89" r="1.1783"/>
    <circle cx="789.58" cy="904.97" r="2.145"/>
    <circle cx="780.83" cy="905.35" r=".97512"/>
    <circle cx="770.73" cy="908.42" r=".58222"/>
    <circle cx="768.31" cy="905.04" r=".82053"/>
    <circle cx="749.18" cy="906.36" r=".46489"/>
    <circle cx="750.04" cy="909.52" r=".63787"/>
    <circle cx="750" cy="899.17" r=".57472"/>
    <circle cx="745.77" cy="897.31" r="1.024"/>
    <circle cx="704.74" cy="878.26" r=".51184"/>
    <circle cx="706.55" cy="875.2" r=".68623"/>
    <circle cx="704.63" cy="886.07" r=".60901"/>
    <circle cx="699.89" cy="888.18" r="1.2114"/>
    <circle cx="721.39" cy="863.42" r=".54263"/>
    <circle cx="722.28" cy="866.95" r=".67976"/>
    <circle cx="715.32" cy="856.55" r=".78872"/>
    <circle cx="718.58" cy="850.55" r="1.6191"/>
    <circle cx="906.37" cy="785.46" r="3.3865"/>
    <circle cx="894.57" cy="791.08" r="1.37"/>
    <circle cx="884.37" cy="800.38" r=".70786"/>
    <circle cx="879.87" cy="798.13" r=".98924"/>
    <circle cx="863.14" cy="810.23" r=".44666"/>
    <circle cx="865.49" cy="812.3" r=".60915"/>
    <circle cx="859.58" cy="804.08" r=".57625"/>
    <circle cx="855.21" cy="805.35" r=".98671"/>
    <circle cx="822.56" cy="820.82" r=".33882"/>
    <circle cx="821.39" cy="818.74" r=".4651"/>
    <circle cx="826.84" cy="823.65" r=".39617"/>
    <circle cx="826.2" cy="826.88" r=".74989"/>
    <circle cx="818.42" cy="805.06" r=".43739"/>
    <circle cx="821.32" cy="805.59" r=".5502"/>
    <circle cx="811.7" cy="807.56" r=".60057"/>
    <circle cx="807.98" cy="803.76" r="1.2832"/>
    <circle cx="730.56" cy="796.94" r=".32246"/>
    <circle cx="730.38" cy="799.21" r=".44562"/>
    <circle cx="733.22" cy="792.98" r=".3599"/>
    <circle cx="731.66" cy="790.39" r=".69568"/>
    <circle cx="734.81" cy="811.65" r=".40555"/>
    <circle cx="736.64" cy="809.68" r=".49299"/>
    <circle cx="728.12" cy="813.74" r=".61821"/>
    <circle cx="727.7" cy="819.26" r="1.3553"/>
    <circle cx="748.62" cy="764.61" r=".35066"/>
    <circle cx="746.95" cy="762.73" r=".49788"/>
    <circle cx="749.83" cy="769.55" r=".37681"/>
    <circle cx="752.88" cy="770.1" r=".70245"/>
    <circle cx="732.29" cy="756.03" r=".54146"/>
    <circle cx="732.55" cy="759.57" r=".64596"/>
    <circle cx="736.89" cy="747.9" r=".82255"/>
    <circle cx="732.5" cy="741.62" r="1.9375"/>
    <circle cx="599.66" cy="984" r="5.8621"/>
    <circle cx="822.8" cy="880" r="1.3974"/>
    <circle cx="742.89" cy="935.9" r="1.012"/>
    <circle cx="869.79" cy="835.37" r=".7818"/>
    <circle cx="693.2" cy="960.2" r=".89862"/>
    <circle cx="847.12" cy="859.3" r=".41323"/>
    <circle cx="770.4" cy="919.9" r=".56687"/>
    <circle cx="889.15" cy="812.93" r=".63691"/>
    <circle cx="660.28" cy="972.6" r=".95405"/>
    <circle cx="655.81" cy="950.3" r=".4679"/>
    <circle cx="836.86" cy="869.04" r=".33518"/>
    <circle cx="756.39" cy="928.9" r=".3378"/>
    <circle cx="878.61" cy="826.1" r=".30932"/>
    <circle cx="710" cy="953.2" r=".54545"/>
    <circle cx="701.91" cy="943.2" r=".26189"/>
    <circle cx="677.44" cy="924.33" r=".26523"/>
    <circle cx="682.51" cy="914.72" r=".30829"/>
    <circle cx="853.65" cy="853.04" r=".293"/>
    <circle cx="782.01" cy="912.27" r=".50358"/>
    <circle cx="718.92" cy="857.15" r=".25786"/>
    <circle cx="899.63" cy="799.35" r=".68313"/>
    <circle cx="885.01" cy="796.86" r=".27839"/>
    <circle cx="733.23" cy="749.11" r=".27765"/>
    <circle cx="637.38" cy="979.5" r="1.2377"/>
    <circle cx="635.05" cy="964.6" r=".93782"/>
    <circle cx="831.08" cy="874.19" r=".36951"/>
    <circle cx="828.28" cy="870.57" r=".28873"/>
    <circle cx="750.16" cy="932.6" r=".32031"/>
    <circle cx="748.23" cy="929.1" r=".2515"/>
    <circle cx="874.46" cy="830.92" r=".26998"/>
    <circle cx="700.93" cy="957.4" r=".38055"/>
    <circle cx="698.72" cy="953.3" r=".29705"/>
    <circle cx="689.59" cy="927.09" r=".32631"/>
    <circle cx="775.24" cy="917.08" r=".2823"/>
    <circle cx="710.91" cy="865.31" r=".25109"/>
    <circle cx="893.44" cy="808" r=".34153"/>
    <circle cx="889.78" cy="805.96" r=".26248"/>
    <circle cx="671.15" cy="969.1" r=".69856"/>
    <circle cx="666.25" cy="962.3" r=".5084"/>
    <circle cx="651.08" cy="948.9" r=".52459"/>
    <circle cx="654.77" cy="941.7" r=".63173"/>
    <circle cx="839.99" cy="866.26" r=".26666"/>
    <circle cx="760.18" cy="926.63" r=".293"/>
    <circle cx="731.01" cy="885.7" r=".29731"/>
    <circle cx="881.32" cy="822.97" r=".28267"/>
    <circle cx="838.36" cy="807.74" r=".25346"/>
    <circle cx="717.13" cy="949.7" r=".58526"/>
    <circle cx="711.95" cy="945.6" r=".38397"/>
    <circle cx="699.7" cy="944.5" r=".2557"/>
    <circle cx="697.74" cy="940.9" r=".33686"/>
    <circle cx="676.3" cy="921.84" r=".28254"/>
    <circle cx="672.12" cy="924.2" r=".41676"/>
    <circle cx="685.38" cy="915.65" r=".29566"/>
    <circle cx="687.14" cy="910.69" r=".47741"/>
    <circle cx="856.72" cy="849.88" r=".3378"/>
    <circle cx="782.05" cy="792.55" r=".35212"/>
    <circle cx="788.52" cy="907.56" r=".65423"/>
    <circle cx="782.01" cy="904.64" r=".39663"/>
    <circle cx="768.61" cy="906.08" r=".26412"/>
    <circle cx="747.11" cy="897.3" r=".32051"/>
    <circle cx="701.46" cy="888.14" r=".36497"/>
    <circle cx="716.34" cy="856.82" r=".26255"/>
    <circle cx="716.89" cy="851.82" r=".49182"/>
    <circle cx="906.2" cy="789.84" r=".99803"/>
    <circle cx="895.65" cy="789.48" r=".56846"/>
    <circle cx="884.72" cy="799.49" r=".25096"/>
    <circle cx="880.79" cy="799.06" r=".31759"/>
    <circle cx="856.19" cy="804.49" r=".31355"/>
    <circle cx="808.58" cy="805.32" r=".38238"/>
    <circle cx="727.09" cy="817.61" r=".40479"/>
    <circle cx="735.88" cy="748.32" r=".27588"/>
    <circle cx="734.64" cy="742.93" r=".56403"/>
    <circle cx="621.32" cy="982.8" r="2.1665"/>
    <circle cx="616.55" cy="971" r="2.0812"/>
    <circle cx="827.44" cy="877.09" r=".58368"/>
    <circle cx="824.73" cy="874.97" r=".56377"/>
    <circle cx="746.74" cy="934.3" r=".46467"/>
    <circle cx="744.89" cy="932.3" r=".44363"/>
    <circle cx="872.27" cy="833.23" r=".37527"/>
    <circle cx="870.32" cy="832.22" r=".35608"/>
    <circle cx="696.98" cy="959" r=".47696"/>
    <circle cx="695.2" cy="956.9" r=".44363"/>
    <circle cx="685.5" cy="927.2" r=".26054"/>
    <circle cx="683.81" cy="926.53" r=".35348"/>
    <circle cx="772.69" cy="918.71" r=".32463"/>
    <circle cx="771.22" cy="917.56" r=".29739"/>
    <circle cx="891.19" cy="810.79" r=".37723"/>
    <circle cx="889.14" cy="810.11" r=".34256"/>
    <circle cx="664.84" cy="971.4" r=".64642"/>
    <circle cx="662.37" cy="968.7" r=".56377"/>
    <circle cx="658.13" cy="948.7" r=".48358"/>
    <circle cx="658.7" cy="952" r=".66124"/>
    <circle cx="753.1" cy="922.01" r=".2531"/>
    <circle cx="729.78" cy="881.1" r=".26111"/>
    <circle cx="712.68" cy="952" r=".42878"/>
    <circle cx="710.8" cy="950.6" r=".35608"/>
    <circle cx="702.07" cy="941.5" r=".29033"/>
    <circle cx="703.8" cy="942.6" r=".40436"/>
    <circle cx="676.74" cy="925.85" r=".29457"/>
    <circle cx="678.75" cy="925.72" r=".3795"/>
    <circle cx="681.71" cy="912.86" r=".36634"/>
    <circle cx="680.23" cy="914.86" r=".46812"/>
    <circle cx="777.23" cy="794.34" r=".2567"/>
    <circle cx="784.33" cy="910.77" r=".42375"/>
    <circle cx="782.27" cy="909.79" r=".34256"/>
    <circle cx="773.74" cy="904.99" r=".35643"/>
    <circle cx="747.59" cy="902.36" r=".27633"/>
    <circle cx="701.33" cy="883.85" r=".25779"/>
    <circle cx="702.23" cy="882.39" r=".31599"/>
    <circle cx="720.27" cy="856.12" r=".3098"/>
    <circle cx="720.49" cy="858.13" r=".36748"/>
    <circle cx="901.99" cy="796.33" r=".5982"/>
    <circle cx="898.8" cy="796.03" r=".47476"/>
    <circle cx="883.66" cy="795.71" r=".31345"/>
    <circle cx="885.78" cy="794.85" r=".45926"/>
    <circle cx="859.65" cy="808.01" r=".26581"/>
    <circle cx="814.2" cy="804.16" r=".2953"/>
    <circle cx="732.21" cy="814.82" r=".28774"/>
    <circle cx="731.56" cy="748.29" r=".34459"/>
    <circle cx="731.79" cy="750.49" r=".39622"/>
    <circle cx="644.86" cy="977.1" r="1.3796"/>
    <circle cx="639.16" cy="973.1" r=".96641"/>
    <circle cx="629.3" cy="962" r="1.1649"/>
    <circle cx="635.43" cy="958" r="1.2898"/>
    <circle cx="832.83" cy="872.54" r=".43394"/>
    <circle cx="830.69" cy="872.24" r=".29739"/>
    <circle cx="826.4" cy="870.86" r=".34872"/>
    <circle cx="827.28" cy="868.78" r=".40555"/>
    <circle cx="751.97" cy="931.4" r=".3937"/>
    <circle cx="750.13" cy="930.8" r=".26274"/>
    <circle cx="746.6" cy="929.2" r=".29462"/>
    <circle cx="747.49" cy="927.44" r=".35559"/>
    <circle cx="719.84" cy="883.14" r=".34084"/>
    <circle cx="875.61" cy="829.51" r=".33992"/>
    <circle cx="870.84" cy="827.67" r=".30076"/>
    <circle cx="831.3" cy="813.69" r=".25984"/>
    <circle cx="703.29" cy="956.2" r=".50951"/>
    <circle cx="701.03" cy="955.3" r=".32217"/>
    <circle cx="696.87" cy="953.5" r=".32811"/>
    <circle cx="697.68" cy="951.4" r=".4197"/>
    <circle cx="688.6" cy="924.28" r=".27097"/>
    <circle cx="687.97" cy="922.48" r=".37296"/>
    <circle cx="688.14" cy="928.4" r=".32051"/>
    <circle cx="690.48" cy="929.6" r=".59526"/>
    <circle cx="850.95" cy="855.77" r=".25654"/>
    <circle cx="838.89" cy="846.97" r=".30124"/>
    <circle cx="772.5" cy="786.59" r=".27778"/>
    <circle cx="776.86" cy="915.87" r=".39951"/>
    <circle cx="771.84" cy="913.38" r=".30716"/>
    <circle cx="754.31" cy="900.79" r=".25456"/>
    <circle cx="759.19" cy="902.7" r=".42145"/>
    <circle cx="713.58" cy="883.5" r=".35597"/>
    <circle cx="712.56" cy="861.79" r=".30673"/>
    <circle cx="710.24" cy="867.2" r=".44076"/>
    <circle cx="894.84" cy="805.95" r=".49665"/>
    <circle cx="892.55" cy="806.31" r=".29739"/>
    <circle cx="888.63" cy="807.09" r=".27445"/>
    <circle cx="888.04" cy="805.27" r=".36643"/>
    <circle cx="864.08" cy="802.7" r=".26614"/>
    <circle cx="869.53" cy="801.35" r=".46191"/>
    <circle cx="828.87" cy="817.63" r=".25435"/>
    <circle cx="817.59" cy="813.94" r=".31413"/>
    <circle cx="729.38" cy="805.07" r=".30955"/>
    <circle cx="740.27" cy="752.67" r=".28604"/>
    <circle cx="743.02" cy="757.09" r=".37046"/>
    <circle cx="676.05" cy="966.7" r="1.1582"/>
    <circle cx="671.18" cy="965.1" r=".62932"/>
    <circle cx="663.54" cy="963.6" r=".4911"/>
    <circle cx="663.47" cy="960.1" r=".68114"/>
    <circle cx="650.14" cy="945.7" r=".58878"/>
    <circle cx="647.01" cy="948.6" r=".87504"/>
    <circle cx="658" cy="943.4" r=".58089"/>
    <circle cx="658.66" cy="938.7" r="1.0438"/>
    <circle cx="841.39" cy="864.68" r=".46072"/>
    <circle cx="835.91" cy="864.46" r=".25506"/>
    <circle cx="828.67" cy="864.06" r=".30433"/>
    <circle cx="829.96" cy="858.59" r=".40436"/>
    <circle cx="757.02" cy="797.24" r=".39664"/>
    <circle cx="762.07" cy="925.19" r=".52944"/>
    <circle cx="759.8" cy="924.98" r=".27062"/>
    <circle cx="756.14" cy="924.05" r=".26933"/>
    <circle cx="748.94" cy="923.2" r=".28813"/>
    <circle cx="750.09" cy="917.77" r=".41682"/>
    <circle cx="725.6" cy="874.23" r=".36683"/>
    <circle cx="727.38" cy="884.45" r=".25377"/>
    <circle cx="732.1" cy="884.27" r=".30103"/>
    <circle cx="733.54" cy="886.52" r=".64872"/>
    <circle cx="882.63" cy="821.05" r=".52559"/>
    <circle cx="880.45" cy="821.59" r=".26274"/>
    <circle cx="876.86" cy="821.98" r=".25326"/>
    <circle cx="870.54" cy="823.82" r=".2531"/>
    <circle cx="869.35" cy="818.99" r=".38156"/>
    <circle cx="827.85" cy="806.01" r=".30356"/>
    <circle cx="837.98" cy="806.25" r=".26078"/>
    <circle cx="840.29" cy="806.49" r=".56715"/>
    <circle cx="741.03" cy="806.16" r=".25108"/>
    <circle cx="748.95" cy="800.78" r=".40479"/>
    <circle cx="732.37" cy="766.84" r=".31919"/>
    <circle cx="732.29" cy="778.72" r=".4911"/>
    <circle cx="721.37" cy="947" r="1.1966"/>
    <circle cx="716.49" cy="946.4" r=".55227"/>
    <circle cx="710.51" cy="947.2" r=".33574"/>
    <circle cx="709.45" cy="945" r=".47494"/>
    <circle cx="698.21" cy="943.9" r=".27839"/>
    <circle cx="698.41" cy="945.9" r=".38156"/>
    <circle cx="699.44" cy="939.8" r=".34327"/>
    <circle cx="697.15" cy="938.2" r=".61608"/>
    <circle cx="674.53" cy="921.38" r=".33055"/>
    <circle cx="676.12" cy="919.72" r=".4414"/>
    <circle cx="673.36" cy="926.29" r=".394"/>
    <circle cx="670.06" cy="926.99" r=".79098"/>
    <circle cx="687.03" cy="914.72" r=".33882"/>
    <circle cx="687.03" cy="916.99" r=".4241"/>
    <circle cx="684.44" cy="909.58" r=".49714"/>
    <circle cx="687.41" cy="906.49" r="1.013"/>
    <circle cx="858.51" cy="847.49" r=".72426"/>
    <circle cx="855.67" cy="848.2" r=".32217"/>
    <circle cx="851.68" cy="849.06" r=".26343"/>
    <circle cx="844.15" cy="848.83" r=".31866"/>
    <circle cx="830.59" cy="851.91" r=".34436"/>
    <circle cx="829.91" cy="841.27" r=".25456"/>
    <circle cx="829.81" cy="839.04" r=".53628"/>
    <circle cx="760.93" cy="777.69" r=".43488"/>
    <circle cx="770.42" cy="794.5" r=".26748"/>
    <circle cx="778.41" cy="790.36" r=".26166"/>
    <circle cx="781.42" cy="794.55" r=".34872"/>
    <circle cx="784.72" cy="794.52" r=".84738"/>
    <circle cx="792.88" cy="903.36" r="1.5254"/>
    <circle cx="786.97" cy="904.03" r=".62932"/>
    <circle cx="781.12" cy="906.62" r=".33112"/>
    <circle cx="779.45" cy="904.96" r=".46574"/>
    <circle cx="770.85" cy="909.29" r=".2944"/>
    <circle cx="769.33" cy="904.62" r=".28055"/>
    <circle cx="767.11" cy="904.54" r=".4839"/>
    <circle cx="749.94" cy="910.54" r=".38751"/>
    <circle cx="750.86" cy="899.27" r=".28506"/>
    <circle cx="745.76" cy="898.65" r=".3163"/>
    <circle cx="744.55" cy="896.12" r=".67931"/>
    <circle cx="704.17" cy="878.79" r=".269"/>
    <circle cx="706.81" cy="874.12" r=".41779"/>
    <circle cx="705.53" cy="886" r=".2953"/>
    <circle cx="699.86" cy="886.59" r=".37639"/>
    <circle cx="698.52" cy="889.69" r=".82717"/>
    <circle cx="721.45" cy="862.59" r=".28835"/>
    <circle cx="722.88" cy="867.86" r=".40377"/>
    <circle cx="715.27" cy="855.45" r=".32082"/>
    <circle cx="714.53" cy="857.41" r=".38308"/>
    <circle cx="719.78" cy="852.28" r=".48197"/>
    <circle cx="719.08" cy="847.84" r="1.141"/>
    <circle cx="910.41" cy="781.1" r="2.5491"/>
    <circle cx="902.03" cy="785.67" r=".96641"/>
    <circle cx="895.66" cy="792.55" r=".46276"/>
    <circle cx="892.58" cy="791.42" r=".64463"/>
    <circle cx="883.4" cy="800.28" r=".26189"/>
    <circle cx="884.95" cy="801.27" r=".35643"/>
    <circle cx="880.69" cy="797.08" r=".34327"/>
    <circle cx="878.31" cy="798.33" r=".5767"/>
    <circle cx="865.92" cy="813.18" r=".36776"/>
    <circle cx="860.31" cy="803.63" r=".28848"/>
    <circle cx="856.05" cy="806.33" r=".30302"/>
    <circle cx="853.58" cy="805.27" r=".64877"/>
    <circle cx="820.83" cy="818.24" r=".28442"/>
    <circle cx="826.46" cy="828.1" r=".5038"/>
    <circle cx="822.19" cy="805.48" r=".32843"/>
    <circle cx="812.11" cy="808.34" r=".289"/>
    <circle cx="809.56" cy="803.23" r=".38647"/>
    <circle cx="805.99" cy="802.85" r=".91067"/>
    <circle cx="730.12" cy="799.88" r=".27395"/>
    <circle cx="731.54" cy="789.24" r=".46776"/>
    <circle cx="737.32" cy="809.3" r=".29084"/>
    <circle cx="727.61" cy="814.44" r=".25402"/>
    <circle cx="727.97" cy="812.83" r=".29722"/>
    <circle cx="729.3" cy="818.56" r=".3981"/>
    <circle cx="726.81" cy="821.43" r=".98188"/>
    <circle cx="746.62" cy="761.99" r=".30828"/>
    <circle cx="753.83" cy="770.78" r=".46575"/>
    <circle cx="732" cy="755.25" r=".29182"/>
    <circle cx="732.31" cy="760.57" r=".38022"/>
    <circle cx="736.82" cy="746.74" r=".34025"/>
    <circle cx="737.82" cy="748.68" r=".39051"/>
    <circle cx="731.37" cy="743.86" r=".56847"/>
    <circle cx="731.61" cy="738.37" r="1.4386"/>
    <circle cx="589.56" cy="987.1" r="4.7135"/>
    <circle cx="821.17" cy="881.83" r="1.0565"/>
    <circle cx="741.51" cy="937" r=".73409"/>
    <circle cx="869.07" cy="836.5" r=".55667"/>
    <circle cx="691.94" cy="961" r=".61519"/>
    <circle cx="846.72" cy="859.87" r=".27939"/>
    <circle cx="769.72" cy="920.56" r=".37723"/>
    <circle cx="888.67" cy="813.87" r=".41883"/>
    <circle cx="658.96" cy="973.4" r=".59985"/>
    <circle cx="709.32" cy="953.7" r=".32758"/>
    <circle cx="781.48" cy="912.88" r=".29661"/>
    <circle cx="899.23" cy="800.36" r=".39804"/>
    <circle cx="635.77" cy="980.5" r=".67885"/>
    <circle cx="633.78" cy="964.4" r=".3353"/>
    <circle cx="670.33" cy="969.7" r=".35265"/>
    <circle cx="716.53" cy="950.4" r=".2849"/>
    <circle cx="787.97" cy="908.36" r=".312"/>
    <circle cx="905.83" cy="791.26" r=".46971"/>
    <circle cx="618.88" cy="984.7" r=".92157"/>
    <circle cx="617.77" cy="973.5" r=".70098"/>
    <circle cx="664.21" cy="972" r=".25032"/>
    <circle cx="643.55" cy="978.4" r=".4866"/>
    <circle cx="640.44" cy="973.5" r=".35735"/>
    <circle cx="630.5" cy="963" r=".37936"/>
    <circle cx="633.7" cy="958.2" r=".45321"/>
    <circle cx="675.09" cy="967.9" r=".37333"/>
    <circle cx="647.41" cy="947.5" r=".28848"/>
    <circle cx="658.97" cy="940" r=".32051"/>
    <circle cx="720.55" cy="948.3" r=".36576"/>
    <circle cx="686.18" cy="906.97" r=".30876"/>
    <circle cx="792.17" cy="905.2" r=".45018"/>
    <circle cx="787.68" cy="903.5" r=".26058"/>
    <circle cx="719.87" cy="849.08" r=".33112"/>
    <circle cx="910.35" cy="784.39" r=".73409"/>
    <circle cx="902.71" cy="784.48" r=".40555"/>
    <circle cx="807.1" cy="802.48" r=".26635"/>
    <circle cx="727.95" cy="820.88" r=".28212"/>
    <circle cx="730.78" cy="740.02" r=".41284"/>
    <circle cx="606.64" cy="986.8" r="1.6663"/>
    <circle cx="603.38" cy="977.5" r="1.6153"/>
    <circle cx="824.6" cy="879.77" r=".40933"/>
    <circle cx="822.74" cy="878.21" r=".39944"/>
    <circle cx="744.2" cy="936" r=".30411"/>
    <circle cx="743.04" cy="934.6" r=".29495"/>
    <circle cx="694.37" cy="960.4" r=".28047"/>
    <circle cx="693.4" cy="959" r=".26861"/>
    <circle cx="661.53" cy="972.9" r=".3161"/>
    <circle cx="660.46" cy="971.4" r=".29495"/>
    <circle cx="639.04" cy="979.8" r=".45587"/>
    <circle cx="637.41" cy="977.8" r=".39944"/>
    <circle cx="635.55" cy="963.4" r=".34491"/>
    <circle cx="635.72" cy="965.8" r=".47126"/>
    <circle cx="672.12" cy="969.1" r=".27583"/>
    <circle cx="666.99" cy="962.5" r=".26422"/>
    <circle cx="651.77" cy="949.2" r=".25944"/>
    <circle cx="653.9" cy="942.1" r=".31862"/>
    <circle cx="789.42" cy="907.38" r=".27202"/>
    <circle cx="907.42" cy="789.12" r=".42046"/>
    <circle cx="905.19" cy="788.98" r=".33103"/>
    <circle cx="896.22" cy="788.81" r=".30955"/>
    <circle cx="735.24" cy="743.49" r=".26491"/>
    <circle cx="624.48" cy="983.2" r="1.012"/>
    <circle cx="620.43" cy="980.1" r=".71684"/>
    <circle cx="613.6" cy="971.3" r=".8806"/>
    <circle cx="618.43" cy="968.6" r=".96284"/>
    <circle cx="828.25" cy="876.79" r=".27724"/>
    <circle cx="824.81" cy="874.14" r=".26537"/>
    <circle cx="665.82" cy="971.4" r=".33363"/>
    <circle cx="662.41" cy="967.9" r=".27762"/>
    <circle cx="658.28" cy="947.9" r=".25044"/>
    <circle cx="659.28" cy="952.9" r=".3982"/>
    <circle cx="679.62" cy="915.31" r=".2811"/>
    <circle cx="902.73" cy="795.78" r=".3261"/>
    <circle cx="886.35" cy="794.37" r=".28725"/>
    <circle cx="647.04" cy="977.1" r=".79911"/>
    <circle cx="643.74" cy="975.7" r=".43824"/>
    <circle cx="638.47" cy="974.3" r=".34704"/>
    <circle cx="638.61" cy="971.8" r=".48127"/>
    <circle cx="630.06" cy="960.6" r=".42643"/>
    <circle cx="627.57" cy="962.5" r=".63787"/>
    <circle cx="635.86" cy="959.6" r=".41419"/>
    <circle cx="636.7" cy="956.4" r=".74293"/>
    <circle cx="833.45" cy="872.24" r=".25473"/>
    <circle cx="704.1" cy="956.1" r=".31066"/>
    <circle cx="691.12" cy="930.3" r=".39818"/>
    <circle cx="759.9" cy="902.77" r=".28497"/>
    <circle cx="709.8" cy="867.79" r=".29343"/>
    <circle cx="895.46" cy="805.45" r=".31066"/>
    <circle cx="870.21" cy="800.98" r=".31481"/>
    <circle cx="677.94" cy="966.5" r=".75719"/>
    <circle cx="674.89" cy="965.8" r=".3526"/>
    <circle cx="670.47" cy="964.5" r=".30716"/>
    <circle cx="663.24" cy="964.3" r=".25192"/>
    <circle cx="662.96" cy="959.1" r=".40741"/>
    <circle cx="650.6" cy="944.9" r=".30302"/>
    <circle cx="648.06" cy="949.1" r=".27216"/>
    <circle cx="645.72" cy="949.2" r=".5499"/>
    <circle cx="658.21" cy="944.2" r=".28506"/>
    <circle cx="657.31" cy="939" r=".33541"/>
    <circle cx="659.64" cy="937.3" r=".67931"/>
    <circle cx="842.05" cy="864.28" r=".3054"/>
    <circle cx="829.93" cy="857.93" r=".26607"/>
    <circle cx="756.43" cy="797.57" r=".28397"/>
    <circle cx="762.9" cy="924.88" r=".35672"/>
    <circle cx="750.01" cy="917.08" r=".27626"/>
    <circle cx="734.41" cy="887.22" r=".4651"/>
    <circle cx="883.31" cy="820.49" r=".3579"/>
    <circle cx="868.99" cy="818.46" r=".2536"/>
    <circle cx="841.25" cy="806.29" r=".40966"/>
    <circle cx="749.61" cy="800.56" r=".2889"/>
    <circle cx="732.11" cy="779.54" r=".35009"/>
    <circle cx="723.33" cy="946.4" r=".84595"/>
    <circle cx="720.02" cy="946.2" r=".3526"/>
    <circle cx="715.75" cy="946" r=".2644"/>
    <circle cx="708.81" cy="944.6" r=".28066"/>
    <circle cx="696.56" cy="937.4" r=".40949"/>
    <circle cx="676.44" cy="919.09" r=".26855"/>
    <circle cx="668.98" cy="927.77" r=".54161"/>
    <circle cx="687.26" cy="917.63" r=".25169"/>
    <circle cx="687.84" cy="907.74" r=".30103"/>
    <circle cx="688.18" cy="904.95" r=".71279"/>
    <circle cx="859.51" cy="846.74" r=".52179"/>
    <circle cx="829.48" cy="838.18" r=".38134"/>
    <circle cx="760.46" cy="777.11" r=".31268"/>
    <circle cx="786.13" cy="794.99" r=".63868"/>
    <circle cx="795.24" cy="902.12" r="1.1399"/>
    <circle cx="790.99" cy="902.81" r=".43824"/>
    <circle cx="786.06" cy="903.88" r=".29705"/>
    <circle cx="778.72" cy="904.82" r=".27219"/>
    <circle cx="766.36" cy="904.26" r=".31899"/>
    <circle cx="749.89" cy="911.18" r=".2603"/>
    <circle cx="743.71" cy="895.32" r=".48355"/>
    <circle cx="707" cy="873.45" r=".28087"/>
    <circle cx="697.59" cy="890.77" r=".60057"/>
    <circle cx="723.23" cy="868.43" r=".26734"/>
    <circle cx="717.9" cy="848.72" r=".33574"/>
    <circle cx="719.47" cy="845.89" r=".84738"/>
    <circle cx="913.4" cy="777.69" r="1.9875"/>
    <circle cx="907.16" cy="781.43" r=".71684"/>
    <circle cx="902.86" cy="786.66" r=".32515"/>
    <circle cx="900.65" cy="786.02" r=".45118"/>
    <circle cx="891.59" cy="791.67" r=".37366"/>
    <circle cx="877.37" cy="798.49" r=".37737"/>
    <circle cx="852.47" cy="805.25" r=".45895"/>
    <circle cx="826.66" cy="828.95" r=".36175"/>
    <circle cx="806.44" cy="803.93" r=".2644"/>
    <circle cx="804.53" cy="802.2" r=".67976"/>
    <circle cx="731.48" cy="788.44" r=".33597"/>
    <circle cx="726.38" cy="820.24" r=".28547"/>
    <circle cx="726.18" cy="823.03" r=".74403"/>
    <circle cx="754.47" cy="771.26" r=".33134"/>
    <circle cx="732.2" cy="761.19" r=".25022"/>
    <circle cx="731.15" cy="744.67" r=".26753"/>
    <circle cx="733.16" cy="739.37" r=".4105"/>
    <circle cx="730.95" cy="735.91" r="1.1103"/>
    <circle cx="581.29" cy="989.4" r="3.8708"/>
    <circle cx="819.88" cy="883.21" r=".82657"/>
    <circle cx="740.48" cy="937.7" r=".55667"/>
    <circle cx="868.52" cy="837.3" r=".41641"/>
    <circle cx="691.04" cy="961.6" r=".44739"/>
    <circle cx="769.24" cy="921" r=".26897"/>
    <circle cx="888.33" cy="814.5" r=".29621"/>
    <circle cx="658.08" cy="973.9" r=".41166"/>
    <circle cx="898.96" cy="800.96" r=".26024"/>
    <circle cx="634.8" cy="981" r=".42794"/>
    <circle cx="905.58" cy="791.95" r=".27202"/>
    <circle cx="617.65" cy="985.4" r=".50712"/>
    <circle cx="616.83" cy="973.3" r=".25125"/>
    <circle cx="910.1" cy="785.43" r=".34261"/>
    <circle cx="604.72" cy="988.2" r=".71235"/>
    <circle cx="604.22" cy="979.5" r=".54281"/>
    <circle cx="623.48" cy="984.1" r=".3579"/>
    <circle cx="621.36" cy="980.4" r=".2644"/>
    <circle cx="614.45" cy="972.1" r=".28611"/>
    <circle cx="617.13" cy="968.7" r=".3395"/>
    <circle cx="646.33" cy="977.8" r=".25807"/>
    <circle cx="722.77" cy="947.3" r=".25003"/>
    <circle cx="794.73" cy="903.49" r=".32857"/>
    <circle cx="913.4" cy="780.24" r=".56245"/>
    <circle cx="907.62" cy="780.52" r=".30329"/>
    <circle cx="732.13" cy="736.7" r=".312"/>
    <circle cx="595.09" cy="989.5" r="1.3207"/>
    <circle cx="592.77" cy="982.1" r="1.2885"/>
    <circle cx="822.52" cy="881.68" r=".30283"/>
    <circle cx="821.18" cy="880.48" r=".29739"/>
    <circle cx="620.11" cy="985" r=".33833"/>
    <circle cx="618.95" cy="983.5" r=".29739"/>
    <circle cx="618.2" cy="972.7" r=".25753"/>
    <circle cx="618.21" cy="974.5" r=".3518"/>
    <circle cx="911.25" cy="783.84" r=".31155"/>
    <circle cx="609.05" cy="987.2" r=".77342"/>
    <circle cx="606.04" cy="984.7" r=".55227"/>
    <circle cx="601.08" cy="977.6" r=".68762"/>
    <circle cx="604.96" cy="975.7" r=".74436"/>
    <circle cx="636.08" cy="966.5" r=".28349"/>
    <circle cx="626.07" cy="983.2" r=".58368"/>
    <circle cx="623.71" cy="982.1" r=".32217"/>
    <circle cx="619.87" cy="980.9" r=".25779"/>
    <circle cx="620.07" cy="979.1" r=".35735"/>
    <circle cx="614.25" cy="970.3" r=".32184"/>
    <circle cx="612.26" cy="971.6" r=".4839"/>
    <circle cx="618.65" cy="969.9" r=".30898"/>
    <circle cx="619.48" cy="967.5" r=".55313"/>
    <circle cx="659.64" cy="953.5" r=".26606"/>
    <circle cx="648.35" cy="976.9" r=".52053"/>
    <circle cx="638.3" cy="971.1" r=".28813"/>
    <circle cx="626.6" cy="962.9" r=".40189"/>
    <circle cx="637.51" cy="955.5" r=".4825"/>
    <circle cx="691.56" cy="930.9" r=".28506"/>
    <circle cx="679.21" cy="966.2" r=".53336"/>
    <circle cx="662.64" cy="958.5" r=".27107"/>
    <circle cx="644.91" cy="949.7" r=".37736"/>
    <circle cx="660.32" cy="936.4" r=".47716"/>
    <circle cx="763.47" cy="924.65" r=".25654"/>
    <circle cx="735.05" cy="887.73" r=".34977"/>
    <circle cx="883.78" cy="820.09" r=".25931"/>
    <circle cx="841.95" cy="806.15" r=".30974"/>
    <circle cx="731.99" cy="780.14" r=".26214"/>
    <circle cx="724.73" cy="945.9" r=".6295"/>
    <circle cx="696.15" cy="936.8" r=".29189"/>
    <circle cx="668.24" cy="928.3" r=".394"/>
    <circle cx="688.75" cy="903.84" r=".52871"/>
    <circle cx="860.23" cy="846.18" r=".3937"/>
    <circle cx="829.25" cy="837.56" r=".28506"/>
    <circle cx="787.2" cy="795.36" r=".49862"/>
    <circle cx="797" cy="901.13" r=".88394"/>
    <circle cx="793.82" cy="901.77" r=".32217"/>
    <circle cx="743.09" cy="894.74" r=".36175"/>
    <circle cx="696.91" cy="891.59" r=".45581"/>
    <circle cx="719.78" cy="844.42" r=".65411"/>
    <circle cx="915.71" cy="774.95" r="1.5927"/>
    <circle cx="910.89" cy="778.04" r=".55227"/>
    <circle cx="906.16" cy="781.74" r=".33265"/>
    <circle cx="899.98" cy="786.26" r=".2604"/>
    <circle cx="876.74" cy="798.62" r=".26606"/>
    <circle cx="851.67" cy="805.25" r=".34176"/>
    <circle cx="826.81" cy="829.56" r=".27234"/>
    <circle cx="803.43" cy="801.71" r=".52679"/>
    <circle cx="731.45" cy="787.85" r=".25295"/>
    <circle cx="725.71" cy="824.27" r=".58324"/>
    <circle cx="730.32" cy="737.18" r=".31336"/>
    <circle cx="730.44" cy="733.98" r=".88292"/>
    <circle cx="574.4" cy="991.2" r="3.2347"/>
    <circle cx="818.85" cy="884.28" r=".66427"/>
    <circle cx="739.67" cy="938.3" r=".43656"/>
    <circle cx="868.1" cy="837.91" r=".32318"/>
    <circle cx="690.36" cy="962" r=".33992"/>
    <circle cx="657.45" cy="974.2" r=".2999"/>
    <circle cx="634.15" cy="981.4" r=".29419"/>
    <circle cx="616.91" cy="985.8" r=".32031"/>
    <circle cx="603.75" cy="988.7" r=".39298"/>
    <circle cx="913.22" cy="781.05" r=".26087"/>
    <circle cx="593.53" cy="990.6" r=".56687"/>
    <circle cx="593.37" cy="983.7" r=".43227"/>
    <circle cx="608.26" cy="987.9" r=".27408"/>
    <circle cx="603.95" cy="975.7" r=".26316"/>
    <circle cx="796.62" cy="902.2" r=".25032"/>
    <circle cx="915.73" cy="776.99" r=".44463"/>
    <circle cx="585.77" cy="991.5" r="1.0722"/>
    <circle cx="584.07" cy="985.4" r="1.0508"/>
    <circle cx="605.65" cy="988.4" r=".26087"/>
    <circle cx="604.52" cy="980.2" r=".27219"/>
    <circle cx="596.99" cy="989.9" r=".60999"/>
    <circle cx="594.66" cy="987.8" r=".43824"/>
    <circle cx="590.93" cy="982" r=".5511"/>
    <circle cx="594.09" cy="980.7" r=".59177"/>
    <circle cx="610.27" cy="987.2" r=".44463"/>
    <circle cx="605.79" cy="983.9" r=".2755"/>
    <circle cx="601.64" cy="976.8" r=".25096"/>
    <circle cx="600.03" cy="977.8" r=".37889"/>
    <circle cx="605.82" cy="974.9" r=".42668"/>
    <circle cx="627.04" cy="983.2" r=".37922"/>
    <circle cx="611.5" cy="971.8" r=".30549"/>
    <circle cx="620.14" cy="966.9" r=".35862"/>
    <circle cx="649.23" cy="976.8" r=".36576"/>
    <circle cx="625.97" cy="963.2" r=".27625"/>
    <circle cx="638.08" cy="954.9" r=".33843"/>
    <circle cx="680.11" cy="966" r=".39586"/>
    <circle cx="644.34" cy="950" r=".27493"/>
    <circle cx="660.83" cy="935.7" r=".35348"/>
    <circle cx="735.53" cy="888.12" r=".2726"/>
    <circle cx="725.78" cy="945.6" r=".4866"/>
    <circle cx="667.7" cy="928.8" r=".29946"/>
    <circle cx="689.19" cy="903.02" r=".40774"/>
    <circle cx="860.78" cy="845.74" r=".30757"/>
    <circle cx="788.05" cy="795.66" r=".40007"/>
    <circle cx="798.38" cy="900.33" r=".70539"/>
    <circle cx="742.62" cy="894.3" r=".28082"/>
    <circle cx="696.4" cy="892.22" r=".35774"/>
    <circle cx="720.04" cy="843.27" r=".52018"/>
    <circle cx="917.53" cy="772.7" r="1.3048"/>
    <circle cx="913.7" cy="775.29" r=".43824"/>
    <circle cx="910.13" cy="778.31" r=".25506"/>
    <circle cx="851.07" cy="805.25" r=".26436"/>
    <circle cx="802.56" cy="801.33" r=".42022"/>
    <circle cx="725.35" cy="825.26" r=".46947"/>
    <circle cx="730.04" cy="732.43" r=".71888"/>
    <circle cx="568.57" cy="992.5" r="2.7429"/>
    <circle cx="818" cy="885.14" r=".54545"/>
    <circle cx="739.03" cy="938.8" r=".35151"/>
    <circle cx="867.75" cy="838.38" r=".25807"/>
    <circle cx="689.83" cy="962.3" r=".26698"/>
    <circle cx="592.75" cy="991" r=".31335"/>
    <circle cx="584.49" cy="992.3" r=".4617"/>
    <circle cx="584.51" cy="986.7" r=".35212"/>
    <circle cx="917.57" cy="774.37" r=".36028"/>
    <circle cx="578.11" cy="993" r=".88757"/>
    <circle cx="576.82" cy="987.8" r=".8729"/>
    <circle cx="587.31" cy="991.8" r=".49326"/>
    <circle cx="585.46" cy="990.1" r=".35608"/>
    <circle cx="582.57" cy="985.3" r=".45118"/>
    <circle cx="585.19" cy="984.3" r=".48127"/>
    <circle cx="597.95" cy="990" r=".34981"/>
    <circle cx="590.08" cy="982.1" r=".30433"/>
    <circle cx="594.81" cy="980.1" r=".3386"/>
    <circle cx="611" cy="987.2" r=".28832"/>
    <circle cx="606.36" cy="974.5" r=".27626"/>
    <circle cx="627.68" cy="983.1" r=".266"/>
    <circle cx="620.6" cy="966.5" r=".25124"/>
    <circle cx="649.86" cy="976.7" r=".27099"/>
    <circle cx="638.49" cy="954.5" r=".25044"/>
    <circle cx="680.8" cy="965.8" r=".3054"/>
    <circle cx="661.22" cy="935.2" r=".27234"/>
    <circle cx="726.6" cy="945.3" r=".38736"/>
    <circle cx="689.54" cy="902.38" r=".32401"/>
    <circle cx="788.74" cy="795.9" r=".32811"/>
    <circle cx="799.48" cy="899.67" r=".57592"/>
    <circle cx="695.99" cy="892.72" r=".28823"/>
    <circle cx="720.25" cy="842.35" r=".42355"/>
    <circle cx="919.01" cy="770.82" r="1.0883"/>
    <circle cx="915.9" cy="773.01" r=".35608"/>
    <circle cx="801.86" cy="801.03" r=".34302"/>
    <circle cx="725.05" cy="826.06" r=".38603"/>
    <circle cx="729.72" cy="731.15" r=".59667"/>
    <circle cx="563.59" cy="993.6" r="2.355"/>
    <circle cx="817.28" cy="885.84" r=".45587"/>
    <circle cx="738.5" cy="939.1" r=".28909"/>
    <circle cx="583.85" cy="992.7" r=".25564"/>
    <circle cx="577.03" cy="993.6" r=".38324"/>
    <circle cx="577.15" cy="989" r=".29224"/>
    <circle cx="919.05" cy="772.21" r=".29783"/>
    <circle cx="571.69" cy="994.1" r=".74675"/>
    <circle cx="570.69" cy="989.7" r=".73634"/>
    <circle cx="579.37" cy="993.2" r=".40702"/>
    <circle cx="577.87" cy="991.8" r=".29495"/>
    <circle cx="575.57" cy="987.7" r=".37597"/>
    <circle cx="577.77" cy="987" r=".39882"/>
    <circle cx="588.08" cy="991.9" r=".2823"/>
    <circle cx="585.79" cy="983.9" r=".27496"/>
    <circle cx="727.26" cy="945" r=".31564"/>
    <circle cx="689.83" cy="901.87" r=".26366"/>
    <circle cx="789.31" cy="796.1" r=".27396"/>
    <circle cx="800.38" cy="899.12" r=".47907"/>
    <circle cx="720.42" cy="841.6" r=".35155"/>
    <circle cx="920.23" cy="769.23" r=".92157"/>
    <circle cx="917.66" cy="771.11" r=".29495"/>
    <circle cx="801.28" cy="800.78" r=".28531"/>
    <circle cx="724.82" cy="826.73" r=".32301"/>
    <circle cx="729.45" cy="730.09" r=".50318"/>
    <circle cx="559.27" cy="994.4" r="2.0438"/>
    <circle cx="816.68" cy="886.43" r=".38666"/>
    <circle cx="570.78" cy="994.6" r=".32318"/>
    <circle cx="920.28" cy="770.4" r=".25032"/>
    <circle cx="566.24" cy="995" r=".63691"/>
    <circle cx="565.45" cy="991.2" r=".62932"/>
    <circle cx="572.75" cy="994.3" r=".34153"/>
    <circle cx="569.64" cy="989.6" r=".31799"/>
    <circle cx="571.51" cy="989.1" r=".33574"/>
    <circle cx="727.8" cy="944.8" r=".26214"/>
    <circle cx="801.12" cy="898.65" r=".40474"/>
    <circle cx="720.58" cy="840.97" r=".29647"/>
    <circle cx="921.26" cy="767.86" r=".79036"/>
    <circle cx="724.62" cy="827.3" r=".27426"/>
    <circle cx="729.23" cy="729.18" r=".43007"/>
    <circle cx="555.5" cy="995.1" r="1.7903"/>
    <circle cx="816.16" cy="886.93" r=".3321"/>
    <circle cx="565.45" cy="995.4" r=".27618"/>
    <circle cx="561.56" cy="995.6" r=".5496"/>
    <circle cx="560.92" cy="992.4" r=".54394"/>
    <circle cx="567.14" cy="995.2" r=".29064"/>
    <circle cx="564.55" cy="991.1" r=".27238"/>
    <circle cx="566.17" cy="990.7" r=".28644"/>
    <circle cx="801.76" cy="898.24" r=".34645"/>
    <circle cx="720.71" cy="840.43" r=".25339"/>
    <circle cx="922.14" cy="766.67" r=".68529"/>
    <circle cx="729.03" cy="728.4" r=".37181"/>
    <circle cx="552.18" cy="995.7" r="1.5811"/>
    <circle cx="815.71" cy="887.35" r=".28832"/>
    <circle cx="557.49" cy="996.2" r=".47907"/>
    <circle cx="556.97" cy="993.4" r=".47476"/>
    <circle cx="562.33" cy="995.8" r=".25032"/>
    <circle cx="802.3" cy="897.89" r=".2999"/>
    <circle cx="922.9" cy="765.63" r=".59985"/>
    <circle cx="728.87" cy="727.73" r=".32464"/>
    <circle cx="549.23" cy="996.2" r="1.4065"/>
    <circle cx="815.31" cy="887.72" r=".25265"/>
    <circle cx="553.92" cy="996.7" r=".42127"/>
    <circle cx="553.5" cy="994.2" r=".41794"/>
    <circle cx="802.77" cy="897.58" r=".26214"/>
    <circle cx="923.55" cy="764.71" r=".52944"/>
    <circle cx="728.72" cy="727.13" r=".2859"/>
    <circle cx="546.59" cy="996.6" r="1.2592"/>
    <circle cx="550.77" cy="997" r=".37333"/>
    <circle cx="550.42" cy="994.8" r=".37071"/>
    <circle cx="924.13" cy="763.9" r=".47074"/>
    <circle cx="728.6" cy="726.61" r=".25371"/>
    <circle cx="544.22" cy="996.9" r="1.1339"/>
    <circle cx="547.97" cy="997.4" r=".33312"/>
    <circle cx="547.67" cy="995.4" r=".33103"/>
    <circle cx="924.64" cy="763.17" r=".42127"/>
    <circle cx="542.08" cy="997.2" r="1.0264"/>
    <circle cx="545.46" cy="997.6" r=".29907"/>
    <circle cx="545.2" cy="995.9" r=".29739"/>
    <circle cx="925.1" cy="762.51" r=".37922"/>
    <circle cx="540.14" cy="997.4" r=".93349"/>
    <circle cx="543.2" cy="997.9" r=".26998"/>
    <circle cx="542.98" cy="996.3" r=".26861"/>
    <circle cx="925.51" cy="761.91" r=".34315"/>
    <circle cx="538.37" cy="997.7" r=".85261"/>
    <circle cx="925.88" cy="761.37" r=".312"/>
    <circle cx="536.74" cy="997.9" r=".7818"/>
    <circle cx="926.21" cy="760.88" r=".2849"/>
    <circle cx="535.25" cy="998" r=".71945"/>
    <circle cx="926.52" cy="760.43" r=".26119"/>
    <circle cx="533.88" cy="998.2" r=".66427"/>
    <circle cx="532.61" cy="998.3" r=".61519"/>
    <circle cx="531.42" cy="998.4" r=".57136"/>
    <circle cx="530.33" cy="998.5" r=".53204"/>
    <circle cx="529.3" cy="998.6" r=".49665"/>
    <circle cx="528.35" cy="998.7" r=".46467"/>
   </g>
   <use transform="matrix(.5 .86603 .86603 -.5 -183.01 316.98)" xlink:href="#b"/>
  </g>
  <use transform="rotate(240 500 500)" xlink:href="#a"/>
  <use transform="rotate(120 500 500)" xlink:href="#a"/>
 </g>
</svg>
